<?xml version="1.0" encoding="UTF-8"?>
<svg width="3960.1" height="2640" version="1.1" viewBox="0 0 1047.8 698.5" xmlns="http://www.w3.org/2000/svg">
 <g transform="translate(120.63 4.9415)">
  <g transform="matrix(3.4928 0 0 3.4928 36.78 6.6967)" stroke-width=".084667">
   <path d="m-45.066 96.659v-99.991h299.97v199.98h-299.97z" fill="#fcfcfc"/>
   <path d="m-33.144 195.57c-1.5931-2.1423-2.4165-3.3613-5.0185-7.4295-2.0425-3.1935-3.1945-4.8767-4.2203-6.1666-0.79974-1.0056-2.4059-2.681-2.5703-2.681-0.09329 0-0.11359-0.6658-0.11359-3.7253 0-2.1917 0.03184-3.7253 0.07733-3.7253 0.15701 0 1.4242 1.0056 2.0512 1.6278 1.9472 1.9321 3.3447 4.1564 6.6112 10.522 3.2162 6.2676 4.8926 9.0684 7.4119 12.382l0.20917 0.27517h-3.6353zm7.0978-0.0968c-1.742-2.3155-3.2219-4.7435-4.7017-7.7137-1.0453-2.098-1.9258-4.0971-3.6733-8.3399-2.0389-4.9501-2.8262-6.646-3.9793-8.5717-1.0809-1.8052-2.4837-3.4517-3.7612-4.4147-0.63313-0.47724-1.98-1.2019-2.5451-1.3693l-0.35983-0.10661v-6.2628l0.57921 0.0538c0.31856 0.0296 0.9405 0.14549 1.3821 0.2575 4.4426 1.127 7.3004 4.7664 10.179 12.963 0.21262 0.60537 0.90568 2.6806 1.5401 4.6116 0.63446 1.931 1.411 4.217 1.7257 5.08 2.1087 5.7833 4.517 10.271 7.446 13.874 0.35341 0.43482 0.69483 0.86344 0.75872 0.9525 0.11342 0.15811 0.07108 0.16193-1.7948 0.16193h-1.911zm8.3109 0.39311c-2.4434-2.6959-3.9539-4.9456-5.6991-8.4878-1.8509-3.7569-2.6284-5.9957-4.9989-14.393-1.6313-5.7792-3.1998-10.017-4.8366-13.069-1.6683-3.1102-3.694-5.1791-5.9063-6.0323-1.2714-0.49029-1.9403-0.59788-4.0066-0.64442l-1.8838-0.0424 1.38e-4 -5.104 1.2488-0.23682c2.1685-0.41125 3.1321-0.50411 4.7624-0.45899 1.1452 0.0317 1.6355 0.082 2.159 0.22159 2.48 0.66117 4.2267 2.3403 5.8658 5.6389 1.0823 2.1781 1.8557 4.2476 4.4456 11.896 1.8373 5.4257 2.2832 6.8029 3.2755 10.118 2.2555 7.5345 3.8819 11.326 6.5547 15.282 1.2965 1.919 3.3259 4.2079 4.943 5.5752l0.61601 0.52085h-5.8299zm16.484 0.60609c-0.81055-0.27349-2.6326-1.203-3.5983-1.8356-3.7933-2.4849-6.4941-5.9001-9.644-12.195-1.0992-2.1967-4.0997-8.509-4.8614-10.227-2.928-6.605-4.4933-11.229-6.4885-19.169-1.3138-5.2278-1.7461-6.6249-2.5413-8.2127-0.76504-1.5276-1.7821-2.6226-2.9808-3.2095-0.98848-0.48392-1.5418-0.61106-2.8822-0.6623-2.0549-0.0786-4.0371 0.32294-8.4231 1.706-1.267 0.39956-2.3243 0.72646-2.3495 0.72646-0.02519 0-0.04579-1.0478-0.04579-2.3283 0-1.8315 0.02305-2.3283 0.10803-2.3283 0.13906 0 2.2487-0.88342 5.353-2.2416 6.6813-2.9232 10.006-3.9326 12.968-3.9375 2.766-5e-3 4.3287 1.0096 5.0204 3.2581 0.38916 1.265 0.43247 1.8626 0.50936 7.0273 0.07259 4.8761 0.1438 6.4381 0.38988 8.5513 0.84161 7.2276 3.4905 13.753 7.7569 19.108 1.2427 1.5598 2.6776 3.0889 5.0472 5.3785 1.2895 1.246 3.7162 3.6276 5.3926 5.2926 3.6099 3.5854 4.4414 4.2905 5.9679 5.0608 2.6277 1.326 5.4213 1.2699 7.5089-0.1509 1.3861-0.94332 2.3321-2.2587 3.4078-4.7386 1.1736-2.7056 1.9202-4.9434 2.3939-7.175 0.24548-1.1566 0.26965-1.4061 0.27072-2.794 0.0021-2.6962-0.37184-3.9367-2.8709-9.525-1.6982-3.7974-4.5333-11.376-6.303-16.849-2.8534-8.8238-3.5378-10.398-6.5062-14.968-1.4193-2.1847-1.6344-2.5471-2.1302-3.5884-0.55591-1.1676-0.76674-1.9475-0.82545-3.0534-0.056783-1.0697 0.057771-1.8994 0.41194-2.9835 0.83352-2.5515 3.2915-6.0237 6.3658-8.9923 2.1399-2.0664 4.2208-3.3405 6.6182-4.0523 1.0253-0.3044 2.565-0.38329 3.306-0.1694 1.1536 0.333 1.8677 1.042 2.3559 2.3391 0.42682 1.134 0.63107 2.5764 0.94004 6.6388 0.4093 5.3817 0.76186 7.7584 1.708 11.515 1.2637 5.0167 1.8415 5.9277 8.2426 12.996 3.3367 3.6846 4.106 4.6074 7.023 8.4243 2.7382 3.583 4.2067 5.2079 5.9729 6.6091 2.6907 2.1347 6.6627 4.1304 11.543 5.7998 3.7359 1.2779 6.1734 1.8561 14.068 3.337 6.2203 1.1669 8.6951 2.1306 10.758 4.1892 1.1898 1.1873 1.9441 2.4448 2.5356 4.2269 0.62195 1.8739 0.81056 3.2259 0.92862 6.6566 0.19052 5.5363 0.28986 6.6405 0.77312 8.5937 0.80735 3.263 2.3431 5.6249 4.9735 7.6489l0.62259 0.47907h-5.6677l-0.62507-0.65637c-1.5458-1.6232-2.6533-3.4872-3.4574-5.8193-0.61452-1.7822-0.95078-3.3232-1.4037-6.4329-0.72613-4.9855-1.1903-6.8784-2.1376-8.7165-1.6124-3.129-4.3699-4.9127-10.39-6.7214-0.93133-0.27979-2.8363-0.81973-4.2333-1.1999-5.646-1.5363-8.7012-2.4978-12.792-4.0258-5.1385-1.9194-7.5393-3.153-9.5374-4.9006-1.2831-1.1222-2.1736-2.2144-4.0452-4.9612-3.1429-4.6126-5.3902-7.0796-8.3461-9.1617-2.0978-1.4777-4.0564-2.0662-5.3048-1.594-1.9396 0.73379-2.5977 3.9988-1.7071 8.4697 0.63698 3.1976 1.7914 5.965 4.3973 10.541 2.4356 4.277 3.2411 5.925 3.7995 7.7738 0.74366 2.4621 0.9604 5.0912 0.72731 8.8224-0.22552 3.6099-0.74287 5.6943-2.059 8.2959-0.95193 1.8816-2.1478 3.4986-3.8206 5.1663-1.8407 1.835-3.6893 3.1809-5.7621 4.1952-2.0734 1.0146-1.2013 0.92595-9.0778 0.92268-6.6394-3e-3 -6.8544-8e-3 -7.3475-0.17424zm25.067-0.17247c4.2557-2.9812 7.473-6.6253 9.5208-10.784 1.478-3.0015 2.0969-5.1972 2.7448-9.7367 0.16614-1.1642 0.37756-2.4303 0.46982-2.8136 0.53008-2.2026 1.5815-3.7226 3.0834-4.458 0.91849-0.44969 1.4682-0.56725 2.8873-0.61753 2.0214-0.0716 4.086 0.2659 8.7207 1.4256 6.8293 1.7088 10.768 3.1682 13.547 5.019 2.2781 1.5176 3.6362 3.0678 4.8259 5.5085 0.69418 1.4241 1.1926 2.7857 2.2008 6.0113 0.97826 3.1302 1.3328 4.114 2.0288 5.6303 0.82712 1.8019 2.0081 3.7221 2.9413 4.7823l0.33659 0.38239h-4.8274l-0.61963-0.78317c-1.3775-1.741-2.5541-3.6587-4.337-7.0686-2.2832-4.3669-3.4859-6.1744-5.2303-7.8605-1.2783-1.2356-2.5795-2.1259-4.3058-2.946-3.2949-1.5652-7.1386-2.1031-9.7082-1.3585-1.2497 0.36215-2.0155 0.82456-2.9579 1.7859-0.75685 0.77214-1.3904 1.6952-2.4905 3.6286-2.4943 4.3837-3.932 6.5217-6.0648 9.0195-1.1593 1.3577-3.2429 3.4163-4.6426 4.5868l-1.1853 0.9913-7.4364 4e-3 0.49899-0.34954zm13.665 0.11274c1.0553-0.82544 3.571-2.9759 5.328-4.5545 4.7528-4.2702 5.8212-5.0533 7.7802-5.703 2.0402-0.67659 4.039-0.50047 6.147 0.54164 1.9217 0.95001 3.7936 2.6128 6.8012 6.0414 1.7678 2.0153 2.9004 3.2635 3.3379 3.6785l0.24542 0.23283h-8.1469l-1.0271-0.43493c-1.262-0.53436-1.9014-0.75416-2.9381-1.01-0.68264-0.16844-1.0232-0.19843-2.2839-0.20114-1.9407-4e-3 -3.0332 0.22987-5.7249 1.2264l-1.1336 0.41967-8.6778-8e-3 0.29259-0.22886zm56.942-0.0974c-1.064-0.39761-2.0162-0.8377-2.6924-1.2445-2.959-1.7798-4.727-4.3351-5.4339-7.8531-0.30182-1.5022-0.38242-2.5293-0.38508-4.9071-0.0031-2.8216-0.12876-5.8695-0.29362-7.1242-0.70668-5.3785-2.6343-8.8779-5.9693-10.836-2.1943-1.2886-4.7379-1.9159-9.9483-2.4534-5.2054-0.53696-6.985-0.7664-9.271-1.1952-5.8639-1.1001-11.45-3.2729-15.493-6.0263-1.4158-0.96416-2.1153-1.541-3.4601-2.8536-1.3763-1.3432-2.4586-2.6276-5.2827-6.2685-1.1919-1.5367-3.0321-3.8608-4.0894-5.1647-3.2772-4.0416-4.7118-6.0833-5.8899-8.382-1.3964-2.7245-2.4714-6.1584-3.1144-9.9483-0.55762-3.2868-0.64059-5.466-0.51739-13.589 0.0345-2.2745 0.02041-2.7094-0.10562-3.2597-0.36946-1.6132-1.2762-2.5792-2.8189-3.003-0.79236-0.21767-2.4454-0.26081-3.5937-0.0938-4.1033 0.59678-9.5121 2.8292-13.978 5.7693-1.7134 1.128-3.5074 2.488-8.2043 6.2198-5.4891 4.3613-7.9572 6.0682-11.007 7.6123-1.6344 0.82757-2.7724 1.3064-5.8193 2.4486-5.1191 1.919-7.0727 2.8265-16.152 7.5022-2.7314 1.4067-5.6944 2.8392-5.8726 2.8392-0.06973 0-0.09435-0.59138-0.089-2.1378l0.0074-2.1378 2.5114-1.2466c1.3813-0.68566 4.1497-2.1459 6.1521-3.245 6.2584-3.4351 8.3279-4.4937 12.483-6.3849 5.9416-2.7046 9.5006-4.7535 17.368-9.9988 1.6563-1.1043 3.4649-2.2808 4.0189-2.6144 3.3778-2.0341 11.253-5.3853 15.835-6.7386 4.9427-1.4598 9.2547-1.6649 11.472-0.5457 1.0565 0.53334 1.7815 1.4691 2.0185 2.6053 0.12955 0.62124 0.11421 2.2547-0.03117 3.319-0.06679 0.48895-0.25574 1.7272-0.4199 2.7517-0.39681 2.4763-0.54225 3.7848-0.6413 5.7694-0.22196 4.4474 0.44838 9.0455 1.967 13.492 1.2161 3.5609 2.6489 6.1184 5.6293 10.048 5.962 7.861 6.9395 9.1302 7.9477 10.32 2.6981 3.1845 5.4789 5.3591 9.1369 7.145 4.3248 2.1114 9.3286 3.3625 15.24 3.8105 0.60537 0.0459 2.2437 0.12256 3.6407 0.17041 5.9712 0.20449 8.5052 0.44504 10.68 1.0138 1.947 0.50914 3.4358 1.2396 4.7982 2.3543 1.6079 1.3155 2.9618 3.4124 3.8566 5.973 1.0227 2.9268 1.4944 5.9558 1.8285 11.743 0.27579 4.7766 0.58262 6.5727 1.4414 8.4379 2.177 4.728 8.0648 6.8265 15.149 5.3994 5.0872-1.0247 10.575-4.0636 15.761-8.7273 0.56201-0.50545 2.1051-1.9139 3.429-3.1299 7.2627-6.6705 10.523-9.1134 14.766-11.064 3.0777-1.4147 5.9648-2.3373 11.433-3.6535 4.4343-1.0673 6.7956-1.7338 10.075-2.8435 5.6429-1.9094 8.633-3.4107 11.684-5.8666 1.997-1.6074 3.5975-3.1918 6.4307-6.366 1.7854-2.0003 6.0298-6.2629 7.4123-7.4441 4.7244-4.0368 9.3802-6.5164 14.793-7.8783 6.4178-1.6149 14.489-1.5997 21.252 0.0401 7.5231 1.8239 16.076 6.7593 22.027 12.71 4.2623 4.2624 6.8 8.2804 8.3493 13.22 0.17163 0.54715 0.34661 0.99483 0.38886 0.99483 0.0455 0 0.0768 3.5197 0.0768 8.6258v8.6258l-1.9685 0.9766c-5.4688 2.7132-9.6431 3.9713-13.187 3.9744-1.8006 2e-3 -2.85-0.29888-3.4566-0.98975-0.32495-0.37011-0.38384-0.58447-0.33731-1.2278 0.0722-0.9983 0.86783-2.2322 3.0869-4.7874 3.653-4.2063 5.1815-6.2968 6.562-8.9748 1.5213-2.9512 2.1177-5.149 2.1135-7.7892-7e-3 -4.5303-2.2627-9.0748-6.7042-13.508-4.8107-4.8012-11.812-8.7354-18.452-10.368-6.084-1.4961-12.967-1.5273-18.72-0.0849-5.817 1.4584-10.686 4.2968-15.318 8.93-2.2836 2.2841-3.9817 4.2927-6.5871 7.7914-2.84 3.8138-4.3663 5.5724-6.2381 7.1876-2.0674 1.784-4.0504 2.8659-6.7524 3.6842-2.1482 0.65053-9.1031 2.3339-14.584 3.5298-5.2051 1.1358-7.2202 1.7024-10.118 2.8445-3.3063 1.3033-5.9684 2.8044-9.0593 5.1082-2.7453 2.0462-5.0254 4.0034-10.129 8.6951-4.3856 4.0315-7.4641 6.2782-11.089 8.0929-1.7208 0.8615-3.3613 1.4951-5.9442 2.2956l-0.70373 0.2181-12.055-0.018zm19.729 0.24711c0.0296-0.0479 0.38852-0.25518 0.79761-0.46064 1.734-0.87086 3.8482-2.1848 5.5572-3.4536 1.701-1.2629 3.142-2.4894 5.8321-4.9639 7.1308-6.5593 10.941-9.4402 15.582-11.782 3.4936-1.7626 6.6906-2.8373 10.922-3.6718 4.7527-0.93728 9.3823-1.6995 13.674-2.2513 2.9193-0.37536 3.9264-0.55473 5.4326-0.96752 3.3394-0.91522 5.6516-2.3534 7.5774-4.7132 1.0646-1.3045 1.7393-2.3575 4.1102-6.4151 2.2274-3.812 3.5124-5.7079 5.3779-7.9342 4.8586-5.7983 10.452-9.2032 17.295-10.527 4.7546-0.92013 10.043-0.75547 14.944 0.46522 6.0685 1.5117 12.069 4.8974 16.217 9.1498 1.2917 1.3244 1.9298 2.1034 2.8429 3.4707 1.1831 1.7716 2.0546 3.7906 2.4618 5.7031 0.2204 1.0352 0.2178 3.7272-5e-3 4.7413-0.66571 3.0355-2.3328 5.8401-5.1333 8.636-2.6481 2.6437-5.317 4.5139-11.6 8.1286-1.56 0.89747-3.2935 1.9208-3.8523 2.274-2.2414 1.4169-3.6378 2.6782-4.195 3.7891-0.27206 0.54237-0.29226 0.63835-0.29177 1.387 8.5e-4 0.7372 0.0228 0.84702 0.26741 1.3157 2.1048 4.033 11.365 5.7572 20.856 3.8836 4.6468-0.91728 9.0317-2.4888 14.056-5.0374 1.0017-0.50815 1.8685-0.92392 1.9262-0.92392 0.0804 0 0.10488 0.45978 0.10488 1.969v1.969l-0.27517 0.0949c-0.15134 0.0522-0.96096 0.41974-1.7992 0.81683-4.7999 2.2739-9.6311 3.914-14.12 4.7933-3.4035 0.66676-2.3064 0.60176-10.157 0.60176h-7.0553l-1.5216-0.29954c-1.9725-0.3883-3.6219-0.81352-4.9929-1.2872-5.3594-1.8515-10.258-5.4502-11.729-8.6156-0.3913-0.84251-0.50657-1.3118-0.50304-2.0483 7e-3 -1.4823 0.88824-2.5627 2.9447-3.6107 1.3162-0.67074 2.7944-1.193 6.8561-2.4222 4.1078-1.2431 7.0061-2.2094 9.0467-3.0161 6.0262-2.3822 10.589-5.1268 13.45-8.091 1.3964-1.4465 2.2122-2.7614 2.795-4.5048 1.5136-4.5278-0.12618-9.4547-4.5837-13.772-4.5967-4.452-11.02-7.3754-17.759-8.0832-1.423-0.14943-4.5967-0.17239-5.9068-0.0427-3.3098 0.32761-6.2805 1.1699-9.1275 2.588-2.5273 1.2588-4.3289 2.5683-6.4454 4.6848-1.554 1.554-2.3076 2.4617-3.495 4.2092-2.0226 2.9768-3.1573 5.5008-4.7527 10.572-0.87692 2.787-1.2496 3.8878-1.5678 4.6313-1.4374 3.3578-4.0795 5.0031-9.1434 5.6936-1.9996 0.27266-3.9622 0.39017-7.874 0.47146-5.2687 0.1095-7.151 0.23544-10.837 0.72513-6.156 0.81776-9.1768 1.6782-13.547 3.8588-5.0566 2.5232-8.8945 5.3616-15.494 11.459-3.187 2.9445-4.7504 4.2018-7.4391 5.9827l-1.3854 0.91764h-2.1968c-1.4834 0-2.1793-0.0283-2.1429-0.0871zm8.2676 0.0111c0.0155-0.0418 0.47915-0.40446 1.0303-0.80602 1.7833-1.2993 2.9062-2.241 5.602-4.698 4.9463-4.5082 8.1208-6.8978 12.107-9.1137 2.2613-1.2569 5.2872-2.5992 7.239-3.2111 4.6838-1.4685 10.983-1.8637 18.881-1.1844 3.414 0.29364 7.06 0.75205 9.4403 1.1869 5.3188 0.97167 8.2968 2.3972 13.462 6.4438 5.4532 4.2722 7.039 5.4446 9.4172 6.9624 2.3139 1.4767 5.0898 2.9608 7.4725 3.995l1.057 0.4588-8.7 0.0438-2.1257-1.0879c-2.4622-1.2601-3.9635-2.0896-8.6873-4.7996-7.3846-4.2364-10.182-5.6475-13.885-7.0046-4.0741-1.4929-9.6564-2.5954-14.944-2.9514-2.1333-0.14362-6.2871-0.0532-7.7291 0.16825-2.8983 0.44509-5.5862 1.3388-8.8107 2.9294-2.0522 1.0124-3.2348 1.6862-5.0502 2.8774-2.3658 1.5523-3.9798 2.8264-7.8297 6.1804-1.0001 0.8713-2.4009 2.0572-3.1128 2.6353l-1.2943 1.0511h-1.7838c-1.0168 0-1.7717-0.0326-1.7556-0.0759zm7.2223-5e-3c0.0651-0.1053 4.3056-3.5696 5.5059-4.498 4.4703-3.4578 9.0397-5.9059 13.259-7.1036 2.2342-0.6342 2.9708-0.72151 6.0871-0.72148 2.8717 2e-5 3.7469 0.0594 6.35 0.43114 4.4846 0.64038 8.6116 1.7526 12.809 3.4519 2.8388 1.1493 5.6152 2.4399 13.423 6.2397l4.5997 2.2385-8.5007 0.044-1.958-0.81557c-10.607-4.4184-13.441-5.4824-17.113-6.4245-3.9934-1.0246-7.5978-1.5227-11.007-1.5209-1.7489 9.3e-4 -2.1736 0.0276-3.048 0.19199-4.4354 0.83356-8.7519 2.883-13.999 6.6468-0.85422 0.61273-1.7783 1.2955-2.0536 1.5173l-0.50047 0.40329h-1.9519c-1.2124 0-1.933-0.0305-1.9021-0.0805zm8.7257 4e-3c0.14965-0.14525 2.0124-1.2469 3.0879-1.8262 3.2363-1.7432 6.2528-2.7654 9.144-3.0986 2.6674-0.30735 7.5315 0.31011 12.15 1.5423 2.2324 0.59564 7.3626 2.3966 9.4403 3.314 0.27069 0.11952-0.26795 0.13145-6.2236 0.13775l-6.5199 7e-3 -0.94805-0.21357c-0.52142-0.11746-1.4927-0.30581-2.1584-0.41855-4.0561-0.68691-6.7893-0.61105-9.6038 0.26659l-1.0045 0.31324-3.7229 0.0279c-2.3309 0.0175-3.6921-2e-3 -3.6407-0.0519zm109.01-3e-3c0.0699-0.0408 0.79375-0.32253 1.6087-0.62615 1.6995-0.6332 3.75-1.4777 4.9532-2.0399 0.45587-0.21302 0.86138-0.38732 0.90115-0.38732 0.0398 0 0.0723 0.66064 0.0723 1.4681v1.4681l-0.21565 0.0983c-0.26123 0.11903-7.5234 0.13787-7.3197 0.019zm-143.81-5.9404c-2.4406-0.25389-4.4099-1.1691-5.8415-2.715-1.4367-1.5514-2.2934-3.7032-2.91-7.3097-0.19633-1.1482-0.31084-2.0079-0.73307-5.5033-0.48673-4.0294-0.85866-6.0725-1.4871-8.1686-0.90055-3.0039-2.1476-5.2709-3.845-6.9896-1.91-1.9341-3.9983-2.8851-7.4713-3.4025-0.89244-0.13295-1.8051-0.1484-8.827-0.14943-8.1703-1e-3 -8.2401-4e-3 -11.007-0.39177-7.3349-1.0289-13.393-4.0474-17.709-8.8233-1.3297-1.4716-2.3532-2.7956-5.9672-7.7194-4.3321-5.9021-4.9276-6.7887-5.9929-8.9226-1.664-3.3332-2.7812-7.1393-3.2833-11.186-0.16683-1.3446-0.14079-5.5957 0.04264-6.9616 0.20812-1.5498 0.51448-3.133 0.89746-4.6377 0.18371-0.72178 0.54215-2.1315 0.79655-3.1327 0.5455-2.1468 0.68963-3.0991 0.63074-4.1673-0.09787-1.7748-0.90683-2.8777-2.5855-3.5248-1.0149-0.39127-1.9166-0.53611-3.6311-0.58328-2.8607-0.07872-6.1422 0.36988-10.062 1.3755-2.5788 0.66165-4.4272 1.2802-10.147 3.3956-6.5075 2.4067-9.0525 3.5675-12.798 5.837-7.452 4.5159-10.528 6.1735-16.806 9.0566-2.821 1.2954-5.8693 2.8331-9.9907 5.0398-4.0908 2.1903-9.6644 5.0762-9.8037 5.0762-0.07723 0-0.10234-0.50907-0.10234-2.0743 0-1.7922 0.01736-2.0743 0.12766-2.0743 0.07021 0 3.1658-1.5201 6.8792-3.378 7.6112-3.8081 8.6993-4.3304 12.805-6.1464 5.1216-2.2652 8.2401-3.8095 12.742-6.3101 4.2575-2.3646 6.462-3.3746 10.414-4.7714 2.1918-0.77465 12.425-4.1232 13.857-4.5343 4.4105-1.2662 9.3747-2.2689 13.067-2.6392 1.5404-0.15453 4.3803-0.1316 5.5005 0.04442 3.4244 0.53806 5.045 2.086 4.8379 4.6208-0.10429 1.2766-0.46292 2.4533-1.8975 6.2259-1.8284 4.8082-2.4851 8.1639-2.3604 12.062 0.13491 4.2171 1.1504 8.3082 3.0611 12.332 0.85974 1.8105 1.4434 2.7221 4.8704 7.6072 3.7058 5.2824 4.9209 6.8927 6.532 8.6562 3.8546 4.2192 8.9042 6.8932 15.058 7.9741 2.2851 0.40136 3.2671 0.47059 6.6887 0.47155 3.4871 9.3e-4 4.309-0.0445 9.398-0.51949 4.9391-0.46104 7.5938-0.47735 9.652-0.0593 4.9591 1.0072 8.351 4.6717 10.191 11.01 0.56499 1.9462 0.86532 3.5378 1.5786 8.3659 0.56558 3.8281 1.0101 5.8477 1.6542 7.5154 1.181 3.058 3.0186 4.8884 5.5815 5.5596 3.3823 0.8859 7.7624-0.20775 11.983-2.9919 2.077-1.3702 3.54-2.6376 8.8053-7.6283 2.8897-2.7389 3.5823-3.3796 4.6186-4.2724 3.0149-2.5971 6.157-4.4519 9.8913-5.839 1.5952-0.59255 3.6878-1.1866 7.749-2.2 8.9027-2.2214 11.039-3.1194 19.607-8.2425 4.5946-2.7472 5.8049-3.6255 11.061-8.0267 3.8486-3.2226 6.5434-5.323 8.6253-6.7229 5.5365-3.7227 11.564-5.9948 18.194-6.8586 6.6965-0.87245 16.072-0.42177 22.192 1.0668 3.0208 0.73474 7.3219 2.4632 11.98 4.8144 2.9318 1.4798 4.8207 2.551 10.062 5.7068 2.342 1.4101 4.4165 2.6369 4.61 2.7262l0.35174 0.16244 2e-3 2.5612c1e-3 1.6633-0.0277 2.5612-0.083 2.5612-0.0469 0-1.047-0.82437-2.2225-1.832-6.9234-5.9343-12.223-9.5006-18.354-12.352-6.1425-2.8566-10.136-3.8721-17.142-4.3594-1.6496-0.11474-6.0934-0.11469-7.6623 7e-5 -5.6929 0.41643-10.406 1.6411-14.952 3.8855-4.8722 2.4052-8.2178 4.9875-15.687 12.108-4.875 4.6474-7.0246 6.2173-12.539 9.157-3.4126 1.8194-6.7314 3.1727-10.713 4.3682-0.6985 0.20974-2.813 0.77631-4.699 1.259-7.2177 1.8474-9.9867 2.822-13.335 4.6934-3.2544 1.8189-5.1973 3.3823-11.915 9.5877-4.8872 4.5145-5.8466 5.3233-8.1086 6.8359-4.8435 3.2388-9.8615 4.8247-13.928 4.4017zm5.5033-9.1391c-2.8905-0.44985-4.8116-2.3615-5.9948-5.9656-0.57271-1.7444-0.82845-2.9422-1.5365-7.1967-0.54095-3.2506-0.78533-4.4892-1.1888-6.025-1.8734-7.1315-5.2183-10.987-10.542-12.15-0.80182-0.17522-1.1049-0.19407-3.0903-0.19221-2.4668 2e-3 -2.8834 0.051-7.5777 0.88514-6.1631 1.0952-9.442 1.4161-13.547 1.326-2.764-0.0607-4.3802-0.25826-6.6468-0.81237-5.998-1.4663-10.311-4.4379-14.449-9.9554-1.3822-1.843-5.006-7.1913-6.6425-9.8034-2.149-3.4302-3.5812-7.2425-4.1971-11.172-0.25743-1.6424-0.28086-5.4924-0.04263-7.0067 0.53736-3.4157 1.462-5.9304 3.7669-10.245 1.9897-3.7242 2.4525-4.8614 2.5339-6.2255 0.03844-0.6443 0.01532-0.88124-0.13396-1.3727-1.0376-3.416-6.7006-4.4432-15.971-2.897-5.0409 0.84072-10.805 2.245-17.865 4.3527-2.0955 0.62554-5.0102 1.4844-6.477 1.9085-6.4498 1.8649-9.7103 3.1189-15.035 5.7824-3.5186 1.76-6.1187 2.9268-9.9839 4.4802-4.8564 1.9517-9.0042 3.8172-16.884 7.5942-1.37 0.65667-2.5226 1.1939-2.5612 1.1939s-0.06874-0.88582-0.06699-1.9685l0.0032-1.9685 1.796-0.7942c8.9927-3.9767 12.619-5.4755 17.544-7.2505 2.6439-0.95297 5.1753-1.9594 7.7013-3.0618 5.9784-2.6092 9.0986-3.6287 17.826-5.8239 1.7928-0.45023 4.6122-1.181 6.2653-1.6233 9.551-2.5551 18.207-4.4953 22.811-5.1129 7.6369-1.0244 12.81-0.1652 15.319 2.5441 0.8269 0.89316 1.1715 1.7559 1.1682 2.9251-0.0043 1.5367-0.68086 2.8102-3.1459 5.9214-2.1053 2.6572-3.1088 4.1564-4.0563 6.06-1.0323 2.074-1.6681 4.0767-2.014 6.3437-0.18464 1.2101-0.20581 4.457-0.037 5.6727 0.5091 3.6663 1.7647 7.1977 3.7779 10.626 2.7897 4.7502 6.0668 9.6019 7.9912 11.831 4.1008 4.7501 9.3369 7.3272 15.971 7.8608 1.5568 0.12522 5.0674 0.0564 6.8157-0.1336 3.4946-0.37981 5.8597-0.87449 11.574-2.4208 5.9438-1.6085 8.44-2.0354 11.117-1.9014 4.7992 0.24027 7.8041 2.0928 9.7573 6.0154 1.1957 2.4013 1.8724 5.1954 2.8606 11.811 0.93564 6.264 1.7862 8.7878 3.5027 10.394 0.98609 0.92243 1.952 1.2624 3.3527 1.1801 2.6452-0.15545 5.62-2.3877 10.459-7.8483 3.7104-4.1869 5.5353-5.6386 8.6755-6.9013 2.4393-0.98091 5.0671-1.5252 11.015-2.2814 4.7015-0.59778 6.6156-0.98305 9.266-1.865 3.2424-1.079 5.2457-2.1472 12.146-6.4765 4.2777-2.6837 4.2869-2.6894 6.985-4.2817 2.1002-1.2394 3.6894-2.2462 8.1703-5.176 3.5321-2.3094 5.2957-3.3514 7.747-4.5771 6.3607-3.1805 12.571-4.8253 20.278-5.3707 3.164-0.22392 10.255-0.11551 15.071 0.23041 8.0374 0.57733 10.751 1.2911 22.352 5.8801 5.4083 2.1393 7.3729 2.855 9.4192 3.4314l0.48683 0.13714v3.6401l-0.1905-0.0591c-0.74524-0.2311-3.629-1.5465-7.5988-3.4661-7.04-3.4042-11.045-5.101-15.242-6.4578-3.3405-1.0799-7.4448-1.6864-13.926-2.0578-2.1868-0.12532-7.6451-0.1252-9.4403 0-9.9332 0.6939-17.443 3.3982-25.672 9.2446-0.80501 0.57193-2.9115 2.1108-4.681 3.4197-4.5424 3.36-5.1036 3.7482-7.8317 5.4177-0.67521 0.41321-2.7707 1.7036-4.6567 2.8676-9.0328 5.5748-11.141 6.447-20.193 8.3542-5.5142 1.1617-7.9188 1.9022-10.71 3.2981-3.235 1.6176-4.6692 2.7363-9.0679 7.0725-6.1639 6.0764-8.0395 7.6574-10.623 8.9549-2.0085 1.0086-4.3693 1.497-6.0052 1.2424zm94.065-8.2682c-1.0393-0.0552-2.9097-0.29652-3.8756-0.50006-4.7308-0.99697-7.45-3.6492-8.2378-8.0346-0.20496-1.1411-0.20999-3.534-0.0102-4.826 0.29416-1.9019 0.81877-3.5055 1.769-5.4073 2.7526-5.5091 7.7047-9.4573 13.699-10.922 6.4703-1.5807 13.494-0.38095 19.471 3.3259 3.4857 2.1619 6.2311 5.3154 7.2294 8.3041 0.39498 1.1825 0.50321 1.9466 0.45467 3.2098-0.0526 1.3696-0.2198 2.0356-0.82012 3.2672-1.6973 3.4822-6.1446 6.6891-12.449 8.9767-5.2647 1.9103-11.778 2.8954-17.23 2.606zm8.382-5.7835c7.38-0.83686 13.726-4.1784 15.619-8.2243 0.80103-1.7119 0.80423-3.7773 9e-3 -5.5321-1.5749-3.4733-6.1974-6.6606-11.161-7.6954-1.5691-0.32717-2.4908-0.42086-4.1284-0.41964-3.6461 3e-3 -6.8279 0.93697-9.652 2.834-4.449 2.9886-6.953 8.1914-5.8823 12.222 1.0663 4.0145 4.6919 6.4078 10.454 6.9011 0.99681 0.0853 3.656 0.0372 4.7413-0.0859zm-2.8716-6.0164c-1.8944-0.16189-3.6767-0.85552-4.7149-1.8349-1.0543-0.99459-1.4577-1.8945-1.4523-3.2396 0.0152-3.7426 4.195-6.9427 9.068-6.9427 0.97931 0 2.349 0.21662 3.3122 0.52383 2.7983 0.89247 4.7724 2.6979 5.0979 4.6622 0.24654 1.4878-0.52497 3.1001-2.0681 4.3219-2.2654 1.7937-5.9405 2.7914-9.2429 2.5092zm-215.24-0.49971c-3.1545-0.82707-5.6478-4.0598-6.4337-8.3416-0.21224-1.1564-0.21485-3.8882-0.0048-5.0153 0.71934-3.8597 2.6268-6.203 5.0492-6.203 3.464 0 6.7764 4.5756 7.8862 10.894 0.27134 1.5448 0.27254 3.7199 0.0026585 4.8119-0.42339 1.7131-1.248 2.7858-2.6637 3.465-0.42772 0.2052-0.97958 0.4144-1.2264 0.46489-0.68754 0.14067-1.9209 0.10495-2.6094-0.0756zm147.75-6.6946c-3.1848-0.25902-5.7052-0.90139-7.366-1.8774-0.77716-0.4567-1.7894-1.4746-2.1986-2.2108-0.80474-1.448-1.084-3.0033-1.0818-6.0255 2e-3 -2.0632 0.0555-3.092 0.4932-9.398 0.54898-7.9091 0.3767-13.144-0.60602-18.415-0.62422-3.3482-1.7351-6.4663-2.9408-8.255-0.74214-1.1009-1.9556-2.1767-3.1052-2.753-2.219-1.1124-5.5534-1.588-9.5261-1.3588-10.182 0.58747-15.654 3.4236-16.808 8.7117-0.41306 1.8926-0.42577 4.2368-0.04828 8.9045 0.11486 1.4203 0.25556 3.1729 0.31266 3.8947 0.16149 2.0416 0.13856 5.7372-0.04387 7.0697-0.60667 4.4311-2.2675 6.5765-6.7808 8.7592-1.4878 0.71951-4.0254 1.815-6.4347 2.7779-6.2661 2.5043-10.038 3.5674-14.69 4.1403-1.7485 0.21533-6.1261 0.2151-7.5777 0-5.1591-0.76599-8.9695-2.6538-12.278-6.0832-2.0531-2.128-4.1363-5.0898-6.8371-9.7208-2.1445-3.677-3.1894-5.8561-3.9381-8.2127-1.8172-5.7194-1.2988-11.392 1.4431-15.79 1.0512-1.6864 2.5523-3.2379 5.566-5.7529 3.6286-3.0282 4.6754-4.3861 4.8004-6.2274 0.10184-1.4997-0.57015-2.8945-2.1018-4.3625-2.9668-2.8435-8.0551-4.2415-14.044-3.8583-4.7658 0.30491-7.8856 0.90091-20.87 3.9871-7.2205 1.7161-11.851 2.7872-14.817 3.4274-10.355 2.235-13.594 3.118-19.727 5.3784-1.1642 0.429-4.0217 1.4192-6.35 2.2005-5.8415 1.9601-10.231 3.6177-16.459 6.2159-1.1825 0.49288-2.1635 0.89649-2.1802 0.89649s-0.03025-0.84838-0.03025-1.8853v-1.8853l0.6985-0.26605c9.8971-3.7698 12.111-4.5027 23.728-7.8562 5.2179-1.5062 8.6333-2.266 16.214-3.6066 10.492-1.8556 14.224-2.6367 24.85-5.2011 4.2408-1.0235 6.1269-1.4607 8.0256-1.8604 8.4645-1.7818 14.106-1.8207 19.201-0.13257 3.116 1.0323 5.9178 2.6939 7.9161 4.6947 3.5253 3.5294 3.4979 6.7979-0.08097 9.6657-0.94444 0.75678-1.9868 1.4375-4.0738 2.6605-3.2982 1.9328-4.8259 3.0068-6.1412 4.3176-0.96211 0.95882-1.5133 1.7139-2.0705 2.8367-1.9956 4.0207-1.9461 8.9502 0.1436 14.309 1.4525 3.7246 4.9248 9.8653 7.2962 12.903 2.9766 3.8133 6.6334 6.1063 11.22 7.0352 2.8998 0.58734 6.813 0.55586 10.404-0.0837 5.2839-0.94107 12.153-3.9324 16.516-7.1918 3.8954-2.9106 5.5684-5.7615 6.2134-10.588 0.1929-1.4436 0.12994-5.9334-0.13151-9.3776-0.33364-4.3951-0.29797-6.1604 0.1595-7.8944 1.3162-4.989 6.5577-7.7092 17.521-9.0928 3.4184-0.43141 4.6372-0.50961 8.001-0.51332 2.9373-3e-3 3.2537 0.0108 4.2261 0.18756 1.3383 0.24327 2.0795 0.46396 2.9282 0.87184 2.4406 1.173 3.8388 3.4223 5.0229 8.0811 1.341 5.2761 2.1665 11.683 2.8908 22.437 0.39569 5.8751 0.57322 7.4277 1.0664 9.3258 1.0363 3.9884 3.3709 6.408 7.094 7.3525 4.2547 1.0793 8.9606-0.20786 15.845-4.334 0.6985-0.41863 2.6797-1.6556 4.4027-2.7488 6.5395-4.1492 8.6415-5.2826 14.241-7.6786 6.673-2.8552 12.076-4.5985 17.745-5.7261 2.9123-0.57918 5.1757-0.87708 8.738-1.1501 1.8841-0.14439 10.832-0.19412 15.5-0.0862 11.864 0.27444 12.725 0.39047 22.984 3.1001 5.4685 1.4443 8.3076 2.0308 11.068 2.2867l0.61383 0.0569v1.6847c0 1.5483-0.012 1.6847-0.14816 1.6841-0.25086-1e-3 -2.0955-0.40258-3.2682-0.71123-1.7116-0.45052-3.6204-1.0382-8.1407-2.5062-7.9436-2.5799-10.162-3.1696-13.504-3.5906-3.9176-0.49339-10.604-0.81112-17.06-0.81067-4.9129 0-7.8631 0.1606-11.049 0.60021-7.768 1.0719-14.665 3.532-23.072 8.2294-8.7715 4.9014-10.004 5.6218-14.52 8.485-4.9959 3.1675-6.5006 4.0582-8.787 5.2018-2.8517 1.4263-4.9861 2.1317-7.723 2.5522-1.3125 0.20164-4.8703 0.28814-6.477 0.15748zm-26.18-9.7411c-2.3292-0.27116-4.755-1.3973-6.4374-2.9884-2.3013-2.1764-4.6778-6.9776-5.9874-12.097-0.63323-2.4751-1.2565-5.9966-1.532-8.6556-0.1887-1.8215-0.18872-4.5288-5e-5 -5.7487 0.39883-2.5786 1.4979-4.4251 3.437-5.7746 2.4416-1.6992 6.9657-2.674 11.159-2.4045 3.4323 0.22056 5.6474 1.0648 7.4334 2.8331 1.1272 1.116 1.8975 2.3279 2.6157 4.115 1.0281 2.5582 1.4996 5.3354 1.5013 8.8424 1e-3 2.7974-0.31033 5.5509-1.0398 9.1863-1.0355 5.161-2.4662 8.4947-4.5235 10.541-1.7547 1.7452-3.9601 2.461-6.6263 2.1506zm0.83225-13.237c2.3836-0.50526 4.3192-3.0234 5.2918-6.8844 0.67349-2.6738 0.71215-5.0649 0.1167-7.2179-0.26398-0.95452-1.0064-2.3968-1.6358-3.1782-2.0772-2.5784-5.7706-3.6144-9.4836-2.66-2.5673 0.65989-4.1927 2.3796-4.7578 5.0339-0.43317 2.0345-0.11858 5.0092 0.77829 7.3594 0.92332 2.4195 2.3756 4.4083 4.262 5.8364 1.9598 1.4836 3.7856 2.0591 5.4284 1.7109zm32.46 13.248c-1.23-0.13899-2.2869-0.5018-3.202-1.0992-2.9898-1.9518-4.5353-5.8961-6.189-15.795-0.21004-1.2573-0.70806-4.4196-1.1067-7.0273-1.4982-9.8002-2.2478-13.779-3.0935-16.419-1.4656-4.5752-4.2156-6.0997-10.327-5.7249-3.4116 0.20924-9.4373 0.94995-14.556 1.7892-8.2447 1.3519-13.072 3.067-15.702 5.5784-1.1554 1.1033-1.8887 2.3495-2.2741 3.8645-0.17446 0.68581-0.19064 0.93681-0.18482 2.8682 0.0054 1.7878 0.04745 2.4785 0.2707 4.445 0.38044 3.3512 0.47251 4.9185 0.41526 7.0697-0.05114 1.9216-0.17622 3.0392-0.49091 4.386-1.006 4.3055-3.5979 7.6748-8.2876 10.773-5.2085 3.4413-10.997 5.2876-16.578 5.2876-3.3002 0-6.0327-0.5719-8.4553-1.7697-3.942-1.949-6.5836-4.99-9.6419-11.1-1.9577-3.9109-3.0465-6.951-3.4721-9.6943-0.19102-1.2314-0.19684-3.4518-0.01176-4.4873 0.31754-1.7766 1.0429-3.5611 1.9125-4.7051 0.5163-0.6792 1.4373-1.5615 2.3253-2.2276 1.1831-0.88751 1.9264-1.3149 6.5735-3.7798 2.7893-1.4795 4.4367-2.5834 5.6827-3.8078 0.8989-0.88333 1.4878-1.7231 1.825-2.6024 0.29092-0.75866 0.3607-1.9995 0.16075-2.8586-0.16229-0.69732-0.81414-2.07-1.3328-2.8067-2.0392-2.8963-6.04-5.8873-10.341-7.7315-3.8503-1.6507-8.2172-2.3796-12.74-2.1265-4.2508 0.23784-7.5984 0.85415-15.977 2.9415-11.139 2.7751-14.819 3.5458-22.14 4.6376-1.901 0.28348-3.3977 0.48964-9.8637 1.3587-11.815 1.588-21.643 3.9836-33.726 8.221-1.5164 0.53178-2.7685 0.96688-2.7825 0.96688-0.01396 0-0.02539-0.8382-0.02539-1.8627 0-1.5121 0.02163-1.8627 0.1149-1.8627 0.06319 0 0.83472-0.23072 1.7145-0.5127 5.938-1.9032 12.882-3.8003 16.707-4.564 4.919-0.98224 9.6706-1.5715 18.124-2.2476 13.756-1.1002 18.719-1.8809 29.337-4.6149 11.305-2.9107 13.3-3.3541 17.357-3.8571 1.4752-0.18291 5.6258-0.25862 7.0482-0.12858 3.1218 0.28543 6.0752 1.034 9.0808 2.3015 5.5041 2.3213 11.396 6.828 13.985 10.696 2.4639 3.682 1.9233 6.3934-1.8438 9.2491-1.6203 1.2282-3.0856 2.1122-6.6642 4.0204-3.9123 2.086-5.1425 2.8182-6.4506 3.8388-1.4425 1.1255-2.3523 2.1997-3.0097 3.5535-1.1209 2.3085-1.3091 5.318-0.54459 8.7057 0.43208 1.9146 1.5897 5.0289 2.6679 7.1776 2.4168 4.816 5.4053 7.5701 9.5846 8.8329 3.8548 1.1647 8.8611 0.87904 13.315-0.75981 1.2937-0.47602 3.6161-1.6269 4.8544-2.4057 3.4232-2.1528 6.0235-4.8374 7.4628-7.7047 1.2196-2.4298 1.7216-4.7955 1.7157-8.0857-0.0044-2.4145-0.19091-3.9589-0.9613-7.9587-0.88733-4.6069-0.9027-6.4455-0.06815-8.1518 1.0455-2.1376 3.6894-3.839 8.2903-5.335 3.5082-1.1407 6.8149-1.8558 15.155-3.2775 3.8067-0.64891 6.3711-1.1077 11.807-2.1123 4.1788-0.7723 6.5078-0.96286 8.3584-0.68389 2.8024 0.42244 4.4389 1.855 5.4675 4.7862 0.5157 1.4695 0.75675 2.7512 1.9268 10.245 1.7544 11.235 3.4746 18.32 5.417 22.31 1.2328 2.5322 2.5916 4.0649 4.3188 4.8719 1.0597 0.4951 1.6828 0.62334 3.0057 0.61854 1.2781-5e-3 1.9544-0.12252 3.429-0.5977 1.8188-0.58613 2.919-1.1086 7.3213-3.4771 5.976-3.2151 9.0661-4.4074 13.973-5.3912 4.1256-0.82726 16.545-2.616 20.574-2.9632 3.2726-0.28201 4.2966-0.30902 14.563-0.38405 6.0751-0.0444 12.119-0.13195 14.266-0.20665 6.6463-0.23122 9.1801-0.13806 13.885 0.51055 6.829 0.94137 7.9591 1.0564 10.583 1.0778 0.9779 8e-3 2.3019-0.0172 2.9422-0.0559l1.1642-0.0703v3.485l-1.0795-8.5e-4c-2.6862-1e-3 -5.2273-0.36085-11.663-1.6514-8.434-1.6913-7.7241-1.6327-21.209-1.7511-16.149-0.14183-19.54-1e-3 -26.12 1.0816-4.5081 0.74209-9.852 2.01-15.663 3.7164-4.0799 1.198-6.5173 2.1074-9.0873 3.3905-2.0433 1.0201-3.199 1.6882-6.6607 3.8501-4.3744 2.7319-6.545 3.9235-8.6916 4.7712-2.3492 0.92773-4.7306 1.3547-6.4637 1.1588zm-82.423-4.4928c-2.2307-0.30853-3.9909-0.93265-5.5955-1.984-3.025-1.982-5.3108-5.778-6.2947-10.454-0.8619-4.0957-0.14769-7.3753 2.2179-10.185 1.4228-1.6896 3.9779-3.4766 8.2051-5.7383 2.0621-1.1033 6.7008-3.437 9.3413-4.6995 2.8643-1.3695 4.5232-2.2026 4.8145-2.418 0.38352-0.28354 0.45799-0.52436 0.29348-0.94893-0.30395-0.78446-2.0143-3.2054-3.4534-4.8882-4.1716-4.878-11.21-10.416-16.883-13.284-6.7505-3.4126-12.839-4.3809-20.532-3.2653-3.1279 0.45359-6.2412 1.1741-12.795 2.9611-14.822 4.0415-19.815 4.747-35.645 5.0363-7.9312 0.14496-11.725 0.37629-15.452 0.94217-3.6166 0.54918-10.417 2.1922-17.499 4.2282-0.80032 0.23006-1.4956 0.41829-1.5452 0.41829-0.06085 0-0.09004-0.59798-0.09004-1.8446v-1.8446l2.9845-0.73658c4.1731-1.0299 10.714-2.5483 12.679-2.9433 4.6791-0.94061 7.8284-1.02 16.849-0.42482 5.6981 0.37599 8.1477 0.45755 12.023 0.4003 5.1949-0.07673 8.0981-0.33678 12.513-1.1207 3.932-0.69829 6.9939-1.4613 15.069-3.755 7.0569-2.0045 10.743-2.8106 14.328-3.1335 6.5017-0.58558 12.301 0.5511 18.411 3.6085 3.1258 1.5642 6.0425 3.4016 11.712 7.3783 4.647 3.2593 6.625 4.5022 8.5499 5.3728 3.4915 1.579 6.9298 1.784 13.693 0.8162 3.9514-0.5654 11.805-1.8717 15.79-2.6266 6.2805-1.1895 9.1584-1.9665 17.695-4.7774 4.7339-1.5588 6.1266-1.9514 8.2973-2.3395 1.4182-0.25352 3.7393-0.27566 4.572-0.04361 1.3505 0.37632 2.4485 1.2188 3.087 2.3683 0.89762 1.6162 1.2553 3.4395 1.6971 8.6516 0.3554 4.1923 0.67892 6.6782 1.2341 9.4827 0.7802 3.941 1.7689 6.9852 3.0935 9.525 1.8351 3.5185 3.8726 5.4202 6.5939 6.1543 0.78882 0.21277 0.96526 0.22848 2.5823 0.22981 2.1676 2e-3 2.9254-0.11922 6.8616-1.0957 3.9919-0.9903 5.6142-1.2808 8.2937-1.4853 1.8117-0.13825 5.2258-0.0524 8.382 0.2109 4.4173 0.36843 5.0887 0.39321 12.869 0.47509 4.1677 0.0438 8.9874 0.11774 10.71 0.16422 9.7036 0.26171 15.658 0.0138 22.479-0.93572 7.2504-1.0094 6.8991-0.98188 16.129-1.2628 4.6792-0.14244 7.2618-0.48168 10.003-1.3139 0.37928-0.11516 0.71265-0.20938 0.74084-0.20938 0.0282 0 0.0513 0.93075 0.0513 2.0683v2.0683l-0.4445 0.0883c-2.2558 0.44818-3.5526 0.55518-6.6675 0.55014-2.0138-3e-3 -3.3873-0.054-5.1223-0.18943-5.6016-0.4371-8.5753-0.43195-14.436 0.025-6.8824 0.53663-8.1664 0.57593-19.431 0.59479-10.646 0.0178-10.691 0.0191-17.949 0.50897-4.3509 0.29365-6.0911 0.38793-10.202 0.55279-6.7643 0.27124-9.4699 0.87052-17.103 3.7882-1.6997 0.64972-3.5666 1.3382-4.1487 1.53-3.2787 1.0801-5.4659 1.1913-7.4083 0.3767-2.885-1.2099-5.2162-4.9006-7.154-11.326-1.333-4.4202-2.1602-8.7918-3.132-16.553-0.37795-3.0185-0.50901-3.8761-0.77535-5.0732-0.62633-2.8152-1.7676-4.5912-3.4844-5.4221-0.99415-0.4812-1.9855-0.67816-3.4204-0.67959-1.9878-0.0019-3.7896 0.31491-8.2382 1.4489-7.1256 1.8164-7.8501 1.9881-11.43 2.7087-1.1409 0.22964-3.5602 0.68527-5.3763 1.0125-10.54 1.8991-13.824 2.5963-19.092 4.0538-4.622 1.2786-8.607 2.7434-9.3345 3.4311-0.43194 0.40832-0.32332 0.71419 1.2032 3.3882 4.0296 7.0588 5.519 12.599 4.78 17.78-0.47782 3.3501-2.029 6.295-4.6621 8.8506-3.0055 2.9171-6.704 4.835-10.783 5.5914-0.7566 0.14031-1.3889 0.18684-2.8363 0.20869-1.0245 0.0155-2.1103-6e-3 -2.413-0.048zm3.9793-2.7119c3.7294-0.34081 7.2054-2.0498 9.8879-4.8616 1.806-1.8931 2.9853-4.0747 3.4931-6.462 0.22813-1.0726 0.30972-3.0941 0.17026-4.2183-0.48921-3.9433-2.5565-7.3136-5.2629-8.58-0.97343-0.45549-1.7632-0.61756-3.039-0.62362-2.1665-0.0103-4.3951 0.62738-7.493 2.1439-4.43 2.1686-7.5229 4.947-8.7704 7.8785-0.48825 1.1474-0.68642 2.1011-0.73297 3.5277-0.07885 2.4162 0.4389 4.4827 1.6288 6.5014 1.3393 2.2721 3.387 3.7555 6.0795 4.4044 1.4187 0.34189 2.5667 0.42424 4.0388 0.28972zm-1.1802-3.5585c-2.1694-0.28074-4.0557-1.5703-4.9436-3.3795-0.49915-1.0172-0.65029-1.5954-0.70816-2.7091-0.15257-2.9362 1.4681-5.6509 4.6614-7.8078 1.3569-0.91653 2.8335-1.5684 4.301-1.8986 0.8609-0.19375 2.4796-0.19141 3.2036 5e-3 2.194 0.59406 3.7543 2.4273 4.1893 4.9221 0.48539 2.7834-0.52351 5.6812-2.7548 7.9125-2.1992 2.1992-5.1928 3.3124-7.9487 2.9557zm138.81-12.749c-5.358-0.17723-13.316-0.69118-16.849-1.0882-2.4854-0.27929-3.9888-0.52097-7.62-1.225-5.0108-0.97147-6.7773-1.2179-9.6578-1.3472-2.6385-0.11848-5.0356 0.0158-7.5719 0.42404-1.9659 0.31647-2.9941 0.41411-4.3571 0.41384-3.0454-8.4e-4 -5.0576-0.74491-6.9755-2.5801-2.1948-2.1002-3.7418-5.0844-4.7862-9.2327-0.83473-3.3154-1.1829-6.3015-1.3227-11.343-0.14356-5.1785-0.28305-6.6449-0.77283-8.1234-0.32598-0.98406-0.70897-1.6023-1.3834-2.2332-0.9995-0.93499-2.0112-1.2878-3.8648-1.3476-2.9182-0.09424-5.6747 0.6977-14.299 4.108-8.2532 3.2636-12.241 4.5011-18.627 5.7796-3.5537 0.71153-7.6503 1.3692-11.811 1.8961-3.7749 0.47808-4.1795 0.50625-7.3237 0.50983-3.4005 0.0039-4.0604-0.06222-6.3077-0.63177-3.599-0.91212-6.4139-2.3356-13.504-6.8289-4.9163-3.1156-6.9858-4.3455-9.2287-5.4848-3.9843-2.0238-7.9758-3.2559-12.277-3.7895-1.3809-0.17133-5.8284-0.14404-7.366 0.0452-3.8646 0.47563-7.0046 1.2181-14.155 3.3471-6.723 2.0016-9.6535 2.7751-13.192 3.482-5.1604 1.0309-9.7284 1.4021-14.763 1.1998-4.4079-0.17714-6.8379-0.45818-13.304-1.5386-7.7737-1.299-9.9643-1.4726-13.25-1.0505-1.8878 0.24249-3.1378 0.51455-7.1543 1.5572-1.4436 0.37472-3.3105 0.83253-4.1487 1.0174-2.7896 0.6151-6.3351 1.3553-6.4917 1.3553-0.14525 0-0.15463-0.11817-0.15463-1.9473 0-1.071 0.01283-1.9473 0.0285-1.9473 0.01568 0 0.96376-0.1699 2.1068-0.37755 3.2219-0.58529 4.792-0.99107 8.5069-2.1985 3.6303-1.1799 4.9502-1.5317 6.7144-1.7896 1.5362-0.22455 4.0569-0.13374 5.6448 0.20336 1.4365 0.30497 3.2977 0.8386 6.5472 1.8772 6.1733 1.9731 9.3982 2.7259 13.758 3.2117 5.5814 0.62186 10.774 0.38254 16.468-0.759 3.4896-0.69964 6.2304-1.4476 12.869-3.5119 8.3809-2.606 11.027-3.2591 15.149-3.7392 1.5434-0.17975 5.3542-0.20256 6.7794-0.04057 4.2323 0.481 8.1444 1.655 12.319 3.6969 1.5932 0.77928 3.6096 1.934 8.128 4.6549 4.1507 2.4994 5.6903 3.3734 7.8202 4.4395 3.9885 1.9963 6.9848 2.9455 10.764 3.41 1.1367 0.13971 5.4831 0.13766 7.0273-0.0033 6.4237-0.58642 13.136-1.7358 18.203-3.1168 4.525-1.2333 8.2644-2.6801 16.383-6.3384 6.6121-2.9795 9.1118-3.9587 11.313-4.4319 3.1249-0.67171 6.0603-0.42873 8.1055 0.67091 2.0193 1.0857 3.0198 2.6368 3.2275 5.0035 0.0813 0.92631 0.0174 3.0672-0.16894 5.6582-0.46657 6.489 0.16729 11.378 1.9486 15.028 0.69913 1.4328 1.2606 2.2357 2.2852 3.2674 1.3535 1.363 2.4729 2.0158 4.3133 2.5157l0.81059 0.22017 4.3603 7e-3c3.6153 6e-3 4.5556 0.032 5.5033 0.15386 3.8266 0.49227 6.6073 1.1996 12.102 3.0784 6.9791 2.3863 10.42 3.1048 18.378 3.8377 4.0888 0.37654 9.9523 0.53072 13.123 0.34507 6.0386-0.35354 9.8062-1.2098 16.044-3.6465 2.7998-1.0937 3.7646-1.3982 7.2813-2.2984 5.6672-1.4506 8.0092-2.1488 12.923-3.8522 1.6591-0.57518 3.0592-1.0458 3.1115-1.0458 0.0683 0 0.095 0.78127 0.095 2.7784v2.7784l-1.1109 0.39983c-3.4445 1.2398-7.059 1.9579-13.917 2.7652-3.7429 0.44059-5.2484 0.70639-9.3557 1.6518-5.9009 1.3582-9.0068 1.8187-13.97 2.0713-1.4469 0.0737-7.1998 0.0921-9.1017 0.0292zm0.762-3.3046c-2.2575-0.0987-5.6351-0.46613-8.0857-0.87952-5.7644-0.97243-9.3781-2.2801-14.097-5.1014-0.46567-0.2784-1.9948-1.2213-3.398-2.0954-4.6993-2.927-6.332-3.7612-8.4976-4.3414-1.4783-0.39609-2.3752-0.47723-5.2752-0.47723-3.5313 0-4.5329-0.14511-6.1124-0.8855-2.8367-1.3297-4.3872-4.3172-4.374-8.4278 0.0114-3.558 1.2631-6.6998 2.8829-7.2363 1.4545-0.48174 2.9428 0.33923 7.1789 3.9597 3.2524 2.7799 4.7262 3.7614 6.4621 4.304 0.89371 0.27934 2.5102 0.27844 3.5558-0.0019 1.6043-0.43023 3.3832-1.2712 5.1647-2.4414 1.7051-1.12 2.5103-1.7808 5.2917-4.3423 6.378-5.8738 9.7312-8.2382 14.638-10.322 3.1177-1.3238 5.2974-1.9925 11.611-3.5618 6.358-1.5804 9.4702-2.599 12.283-4.02 1.7456-0.88183 2.7893-1.6095 3.8856-2.7091 1.0374-1.0404 1.4494-1.6639 1.7922-2.7121 0.31249-0.95544 0.31436-2.3499 5e-3 -3.5137-1.2494-4.6961-6.2101-9.5578-13.439-13.17-6.0342-3.0158-12.679-4.8751-20.437-5.7188-2.3212-0.25245-6.5099-0.31378-8.4966-0.12442-5.3193 0.50703-9.5773 2.0043-13.415 4.7174-2.0202 1.4281-4.7944 4.0063-6.4093 5.9565-3.1888 3.8511-5.2104 7.3666-8.0092 13.928-2.184 5.1199-2.9382 6.4647-4.1064 7.3222-1.0516 0.77197-2.1418 0.84156-5.5053 0.35142-1.1409-0.16625-2.5656-0.34158-3.1661-0.38961-3.3094-0.26472-6.4631 0.11114-9.6609 1.1514-2.1396 0.69603-3.2566 1.1986-9.9483 4.4761-4.4225 2.166-6.9504 3.3566-8.8477 4.1669-6.5345 2.7909-12.068 4.3131-19.6 5.3923-8.56 1.2263-13.36 1.0605-18.627-0.64331-3.678-1.1899-6.915-2.8235-14.358-7.246-3.5606-2.1156-4.1755-2.4684-5.5807-3.2018-7.6953-4.0166-14.96-5.1984-22.818-3.7116-3.2839 0.62137-5.2002 1.1642-12.234 3.4658-6.0295 1.9728-7.5648 2.4363-10.372 3.1308-4.2789 1.0586-7.5698 1.5336-11.261 1.6253-6.6028 0.16396-12.577-1.0517-18.729-3.8114-1.5862-0.71152-2.5908-1.2151-5.5466-2.7804-3.5822-1.897-5.0144-2.5011-6.7762-2.858-1.1702-0.23708-2.2045-0.29526-3.2463-0.18262-1.9002 0.20543-3.4182 0.7022-7.0277 2.2998-1.276 0.5648-2.7773 1.2091-3.3361 1.4317-1.9464 0.77539-4.2708 1.4508-5.969 1.7344-0.44238 0.07389-0.90911 0.15546-1.0372 0.18126l-0.23283 0.04693v-4.5855h0.19957c0.32718 0 1.9746-0.4994 3.0178-0.91482 1.8831-0.74988 3.3698-1.592 7.1543-4.0524 3.6367-2.3643 5.0812-2.9727 7.239-3.0488 1.0224-0.03605 1.2291-0.01806 1.9587 0.17051 2.0941 0.54121 3.7272 1.5688 7.4615 4.6949 3.9113 3.2743 5.6961 4.5829 8.2328 6.0362 7.044 4.0356 15.386 5.2956 24.299 3.67 3.9001-0.71128 7.4968-1.758 14.436-4.201 1.9791-0.6968 4.1508-1.4525 4.826-1.6794 6.2706-2.1071 10.525-2.8904 15.028-2.7666 3.9141 0.10756 7.3529 0.85001 11.345 2.4495 2.7147 1.0876 4.3965 1.9725 9.146 4.8123 1.7707 1.0587 3.8662 2.297 4.6567 2.7519 1.874 1.0783 5.5459 2.9328 6.9406 3.5054 7.2332 2.9698 12.965 3.3054 23.749 1.3908 8.5927-1.5255 13.97-3.5684 26.162-9.9385 6.0922-3.1831 8.1866-4.1503 10.88-5.0237 2.2425-0.72736 3.9807-1.1114 7.7047-1.7024 1.3039-0.20691 2.7508-0.45879 3.2154-0.55974 4.082-0.88696 6.0938-2.5647 9.5021-7.9245 4.5172-7.1035 7.1428-10.452 10.645-13.576 5.3442-4.7673 10.228-6.9416 17.15-7.6355 1.3666-0.137 5.4491-0.13597 7.0273 0.0018 7.5987 0.66321 15.711 2.6009 22.25 5.3144 9.6686 4.0124 16.804 9.6262 20.972 16.5 0.75652 1.2476 2.1229 4.0415 2.6914 5.5033 0.67677 1.7402 1.308 3.7097 2.2116 6.9003 1.7906 6.3226 3.2292 9.7126 5.2816 12.446 1.0808 1.4394 2.9027 3.0562 4.0656 3.6077l0.51576 0.24461 4e-3 4.5508c2e-3 2.503-0.0243 4.5512-0.0592 4.5516-0.29364 3e-3 -4.1817 0.64008-5.3552 0.87677-4.024 0.81169-6.1037 1.6733-12.178 5.0451-3.4159 1.8962-3.5629 1.9886-5.6984 3.5826-1.848 1.3794-2.9391 2.1101-4.193 2.8078-3.5347 1.9669-7.8468 3.0963-13.108 3.433-1.2231 0.0783-4.5895 0.0935-6.0974 0.0275zm5.1266-2.06c5.3617-0.40992 9.347-1.891 12.038-4.4734 1.1175-1.0726 1.8178-2.021 2.478-3.3558 0.65044-1.315 0.95909-2.2278 1.6461-4.8683 0.28474-1.0943 0.67186-2.5802 0.86025-3.302 0.69845-2.676 1.3209-4.3193 2.9983-7.9163 2.1684-4.6498 2.4452-5.474 2.4454-7.2813 8e-5 -0.94402-0.0272-1.1698-0.19155-1.5863-0.75119-1.9036-2.426-2.9237-5.599-3.4103-1.3902-0.21322-4.2826-0.24546-8.1703-0.09109-1.9092 0.07581-3.9857 0.17583-4.6143 0.22227-7.2341 0.53437-12.743 2.2649-17.526 5.5056-2.9944 2.0288-6.5712 5.5156-9.0273 8.8002-1.8608 2.4885-3.2792 4.952-3.7292 6.477-0.19467 0.65962-0.22489 0.91558-0.22489 1.905 0 0.99636 0.029 1.2386 0.22614 1.8878 0.82054 2.7024 3.2629 5.4971 6.6222 7.5776 2.925 1.8115 7.1025 3.0979 12.017 3.7005 2.3355 0.28635 5.5919 0.37419 7.7512 0.2091zm-5.7291-2.4552c-2.4239-0.23316-5.1035-0.88102-7.0406-1.7022-3.7038-1.5702-6.2946-4.2255-7.1348-7.3125-0.25895-0.95137-0.31943-2.7553-0.12916-3.8523 0.49165-2.8346 2.2071-5.9468 4.7522-8.6217 4.0936-4.3023 9.3123-6.703 14.571-6.703 2.2018 0 3.8225 0.3267 5.4055 1.0896 2.96 1.4266 4.3229 4.0174 4.9052 9.3244 0.37546 3.4219 0.47282 8.1654 0.19749 9.6212-0.39744 2.1013-1.0586 3.4365-2.3642 4.7743-1.6251 1.6653-4.0616 2.7456-7.3528 3.2602-1.0399 0.1626-4.6086 0.23759-5.8095 0.12207zm4.0291-3.6789c2.9438-0.59349 4.7966-2.154 5.4304-4.5739 0.24965-0.95309 0.25026-2.6329 1e-3 -3.8225-0.49732-2.3773-1.6605-4.6916-3.1331-6.2335-1.0943-1.1458-2.1022-1.7549-3.4804-2.1035-1.0095-0.25529-2.6639-0.19713-3.7684 0.13246-3.055 0.91168-5.5262 3.1836-6.5892 6.058-0.38846 1.0504-0.50132 1.6926-0.50589 2.8787-5e-3 1.2138 0.11431 1.8392 0.53406 2.807 1.138 2.6238 3.8684 4.419 7.5194 4.9439 0.99672 0.1433 3.0749 0.0982 3.9917-0.0866zm-33.483-19.567c-1.2996-0.18387-2.2844-0.48175-3.3483-1.0128-3.6374-1.8156-7.4746-6.1788-8.7081-9.9018-0.85024-2.5663-0.93885-5.8756-0.25278-9.4403 1.5325-7.9627 6.7596-15.863 13.331-20.148 2.7204-1.7738 6.2278-3.1062 9.8016-3.7234 1.9763-0.34127 3.4556-0.45352 5.9831-0.45401 3.1036-5.93e-4 5.6933 0.22002 8.7738 0.74748 11.342 1.942 20.967 7.4973 23.572 13.605 0.7729 1.8123 0.7862 3.833 0.035 5.3286-1.0236 2.0382-3.4503 3.9506-7.2364 5.7029-2.3278 1.0774-3.7886 1.6096-10.116 3.6853-5.6183 1.8432-9.0579 3.2638-12.209 5.0422-2.3324 1.3166-3.9194 2.3752-7.4811 4.9903-5.211 3.8261-7.25 4.9842-9.5512 5.4244-0.6656 0.12735-2.1551 0.21541-2.5938 0.15335zm3.0178-4.7263c2.3367-0.37932 4.6168-1.4693 9.7246-4.6485 5.8113-3.6172 8.5641-4.9404 16.789-8.0701 1.779-0.67693 3.8251-1.4721 4.5469-1.7669 6.2079-2.5363 9.4053-4.727 10.579-7.2481 0.38699-0.83138 0.52356-1.4583 0.52368-2.404 0-1.9041-0.93184-3.8163-2.8007-5.7457-1.0352-1.0688-1.8402-1.7385-3.1474-2.6187-4.8242-3.2481-11.454-5.3267-18.574-5.8237-1.8262-0.12747-5.6849-0.05743-7.239 0.1314-6.0462 0.73462-11.052 2.9817-14.876 6.6776-4.2888 4.1456-7.0213 9.3283-7.8723 14.931-0.19686 1.2961-0.19647 4.2559 8.5e-4 5.4022 0.55599 3.2322 1.7929 5.6008 4.1577 7.9621 2.6537 2.6497 5.2987 3.6904 8.1875 3.2215zm-1.799-3.907c-2.5979-0.47033-5.1306-2.5025-6.585-5.2836-1.0476-2.0031-1.4551-3.7728-1.4556-6.3207 0-1.5494 0.14213-2.7066 0.52507-4.266 0.91869-3.7409 3.257-7.7513 6.0929-10.45 3.8527-3.6662 8.82-5.8031 15.105-6.498 1.5184-0.16788 5.9291-0.14262 7.5099 0.04302 4.4336 0.52066 8.3438 1.6487 11.651 3.3611 2.0431 1.058 3.4852 2.1048 4.8132 3.4939 1.5748 1.6473 2.3152 3.2096 2.3152 4.8853 0 2.6329-1.8688 4.8556-6.0544 7.2011-1.9142 1.0727-4.153 2.0724-9.914 4.4273-5.0973 2.0835-6.7606 2.8683-11.929 5.6282-2.9366 1.5681-4.709 2.4232-6.0629 2.925-2.3876 0.88506-4.3203 1.1594-6.0111 0.85331zm4.215-3.6005c2.1779-0.30116 4.7073-1.2312 9.4253-3.4657 2.8154-1.3334 4.6618-2.1645 8.1095-3.6504 6.515-2.8079 8.7202-3.9336 10.852-5.5405 1.8064-1.3613 2.9175-2.8273 3.2676-4.3113 0.92384-3.9166-3.753-8.09-11.054-9.8634-2.5504-0.61955-4.2204-0.80531-7.239-0.8052-3.1368 8.5e-5 -4.7905 0.19715-7.4655 0.88948-6.4054 1.6578-11.149 5.293-13.754 10.54-1.1276 2.2713-1.683 4.5176-1.6823 6.8051 8.5e-4 2.4311 0.51209 4.2699 1.6744 6.0204 1.7503 2.636 4.5502 3.8397 7.8653 3.3812zm-1.3274-3.3322c-2.5846-0.54808-4.2355-2.1293-5.0438-4.8312-0.30992-1.0358-0.38547-3.0064-0.16311-4.2539 0.3192-1.7909 1.0275-3.4794 2.1935-5.2287 0.79004-1.1853 2.5896-3.0595 3.7755-3.932 3.1666-2.3298 7.3099-3.831 11.713-4.244 1.3438-0.12603 4.4896-0.05763 5.698 0.12389 4.0559 0.60924 7.2179 1.9336 9.2025 3.8543 1.8448 1.7854 2.262 3.5859 1.2865 5.5524-1.1981 2.4152-4.1922 4.4529-11.009 7.4925-10.27 4.5795-12.842 5.4815-15.833 5.5531-0.86467 0.02069-1.4456-0.0068-1.8203-0.08631zm5.6303-3.6473c3.2297-0.50531 10.142-3.2677 14.151-5.6552 4.7946-2.8552 6.0269-5.824 3.4366-8.2793-1.364-1.2929-3.4424-2.1803-6.0733-2.5929-1.2955-0.20318-4.2036-0.2021-5.5457 0.0021-1.3082 0.19902-2.8896 0.59536-4.0217 1.008-1.251 0.45595-3.2062 1.4665-4.1876 2.1645-1.0252 0.72908-2.4089 2.0574-3.1049 2.9805-0.63715 0.84513-1.4746 2.4852-1.7304 3.3887-0.25224 0.891-0.31646 2.6185-0.12725 3.4235 0.48671 2.0708 2.056 3.4048 4.3393 3.6884 0.69026 0.08573 1.8186 0.03517 2.8636-0.12831zm0.29215-4.1054c-0.82905-0.13022-1.4337-0.41026-1.9064-0.88303-0.57607-0.57607-0.74897-1.0802-0.69487-2.0262 0.0688-1.2024 0.61394-2.2231 1.8384-3.442 1.4606-1.454 3.4452-2.4621 5.847-2.9702 1.1389-0.24096 3.3404-0.26742 4.2854-0.0515 2.1135 0.48286 3.2788 1.4499 3.2884 2.7289 0.0131 1.7444-2.3853 3.7852-6.3511 5.404-2.3814 0.97211-4.8821 1.4638-6.3069 1.24zm-96.939 21.28c-2.9421-0.28836-4.7668-0.65999-7.2712-1.4809-3.9455-1.2933-7.3896-3.0717-14.488-7.4809-3.1357-1.9477-4.7252-2.8513-6.5529-3.7252-3.8619-1.8464-7.4531-2.9321-11.1-3.3557-1.1929-0.13855-4.634-0.13972-5.842-2e-3 -2.1619 0.24652-4.5206 0.72477-6.7112 1.3608-2.3901 0.69394-3.7021 1.1619-10.942 3.9028-7.5694 2.8657-12.517 4.1661-17.415 4.5771-1.5778 0.1324-5.2973 0.0616-6.7148-0.1278-5.8567-0.78261-10.751-2.9778-15.162-6.8004-1.0648-0.92274-3.3957-3.2843-4.4485-4.5071-0.42098-0.48895-1.4837-1.7653-2.3616-2.8363-2.8553-3.4833-4.0804-4.827-5.3653-5.8843-1.0398-0.85569-2.0398-1.4481-2.943-1.7435-0.64478-0.21087-0.87973-0.2449-1.6809-0.24343-1.1211 2e-3 -1.7174 0.14526-2.8309 0.6799-1.5037 0.722-2.7033 1.6345-5.6962 4.3331-3.9036 3.5197-5.5516 4.7276-7.9161 5.802-0.38237 0.17373-0.73479 0.31588-0.78317 0.31588-0.05926 0-0.08795-1.0357-0.08795-3.175 0-2.1984 0.02786-3.175 0.09058-3.175 0.04982 0 0.26889-0.12038 0.48683-0.26751 1.4416-0.97324 3.6221-3.0132 6.0941-5.7015 3.3091-3.5986 4.2046-4.5363 5.1269-5.3687 4.1082-3.7079 6.6826-4.2088 9.22-1.7941 1.4048 1.3368 2.5248 2.9939 5.5853 8.2635 3.674 6.326 5.1758 8.6225 7.336 11.218 4.0595 4.8782 8.7438 7.8804 14.193 9.0968 2.2368 0.49927 3.1748 0.58973 6.1383 0.59198 2.4046 0.0018 2.9195-0.02183 4.0828-0.18756 2.6884-0.38302 5.4054-1.0239 8.2262-1.9404 3.0011-0.97507 4.6255-1.6024 9.8737-3.813 4.6887-1.9749 6.3751-2.6367 8.5937-3.3723 2.7747-0.91998 5.1873-1.4744 7.5108-1.7259 1.2255-0.13266 4.0888-0.11047 5.3187 0.04122 3.3663 0.41518 6.6797 1.5056 10.538 3.4681 2.1741 1.1057 3.649 1.9925 7.112 4.2762 1.6764 1.1055 3.7148 2.4102 4.5297 2.8993 9.2688 5.5626 15.967 6.9572 25.485 5.3064 1.6773-0.29092 5.0506-1.0177 7.0697-1.5231 6.5447-1.6383 12.383-4.2591 24.596-11.041 6.2827-3.489 8.2543-4.4025 14.139-6.5514 4.7643-1.7397 6.5198-2.5958 8.7207-4.2534 1.7373-1.3084 3.2593-2.8359 6.7831-6.8079 4.1952-4.7288 6.6859-7.1805 9.5576-9.4079 3.2439-2.5161 7.2259-4.6298 10.494-5.57 2.9198-0.8401 5.6216-1.1776 9.4031-1.1746 4.1212 0.0033 7.5679 0.41162 13.442 1.5927 11.356 2.283 21.35 5.6104 30.627 10.197 5.2272 2.5843 8.1069 4.4489 11.287 7.3086 2.4062 2.1636 5.403 5.5391 7.5094 8.4583 0.32565 0.4513 0.63972 0.82278 0.69793 0.8255 0.13575 0.0063 0.15728 10.504 0.0216 10.504-0.0464 0-0.489-0.80962-0.98365-1.7992-4.0302-8.0622-6.6223-11.929-10.629-15.856-6.6605-6.5287-16.744-12.14-28.073-15.622-5.9913-1.8417-12.821-3.238-18.692-3.8217-1.4894-0.14806-6.6165-0.14746-7.9587 9.4e-4 -6.2391 0.68983-10.831 2.6341-15.917 6.7391-3.0944 2.4975-5.7968 5.3753-9.3482 9.9548-4.5528 5.8709-5.6189 7.0284-7.8392 8.5119-1.7247 1.1523-3.3659 1.8345-6.6463 2.7624-3.8438 1.0873-5.2856 1.5244-6.6463 2.0147-2.8819 1.0384-5.4241 2.2306-9.525 4.4667-14.587 7.954-19.739 9.9969-29.718 11.785-3.9708 0.7115-6.3058 0.94458-9.271 0.92542-1.1176-0.0072-2.1654-0.02619-2.3283-0.04216zm-0.762-4.1036c-3.25-0.33064-6.7139-1.3869-10.233-3.1203-2.8336-1.3959-5.6519-3.1678-9.2406-5.8098-5.5087-4.0555-10.406-6.8811-14.097-8.1336-2.2588-0.7665-3.7519-0.99574-6.096-0.93599-2.3984 0.06114-3.985 0.37744-6.8774 1.3711-2.4739 0.84989-4.8916 1.9135-10.014 4.4052-6.7187 3.2685-9.9997 4.6671-13.507 5.7574-3.8952 1.2109-7.0054 1.7331-10.333 1.7349-1.9281 1e-3 -3.0627-0.09268-4.6571-0.38464-6.4793-1.1864-11.666-4.9284-15.99-11.536-2.4173-3.6936-4.8904-8.9052-6.5342-13.769-1.2669-3.7488-1.7966-6.1486-2.4868-11.267-0.28695-2.1278-0.48435-3.1371-0.75345-3.8523-0.74985-1.993-2.6079-1.9268-5.7629 0.20544-3.1236 2.111-6.2663 5.2456-11.344 11.315-2.2449 2.6833-3.5457 4.1772-4.8404 5.5586-1.1197 1.1947-2.5617 2.5637-2.7005 2.5637-0.05433 0-0.08418-1.1533-0.08418-3.2526v-3.2526l0.56133-0.5362c1.3019-1.2436 3.2433-3.4792 7.965-9.1722 4.7665-5.747 7.7343-9.0155 12.188-13.423 7.8433-7.7618 13.511-12.09 19.782-15.108 9.0332-4.3461 18.132-5.2811 27.575-2.8336 5.7839 1.4991 11.947 4.368 17.484 8.1379 0.88477 0.60248 2.3135 1.587 3.175 2.1879 3.8112 2.6583 6.8004 4.1033 10.333 4.9951 2.1842 0.55142 4.6435 0.81373 6.8542 0.73106 3.9562-0.14794 7.6372-0.99379 14.055-3.2297 6.093-2.1228 10.1-3.0608 15.24-3.567 2.02-0.19895 5.9726-0.19971 7.7893-0.0015 6.8677 0.74928 11.812 3.016 13.325 6.1085 0.39574 0.80901 0.56014 1.5482 0.56014 2.5187 0 1.5364-0.44737 3.0439-1.5641 5.2706-0.91954 1.8335-1.8325 3.2832-3.3042 5.2468-2.3318 3.1111-4.6023 5.5917-6.477 7.076-4.0961 3.2433-9.6459 5.5742-16.712 7.0192-2.0958 0.42856-4.1461 0.7636-7.2906 1.1913-1.397 0.19003-3.0353 0.44099-3.6407 0.55769-4.5325 0.87377-8.1104 2.3751-9.6937 4.0677-1.287 1.3758-1.3892 2.7593-0.33489 4.534 1.0422 1.7543 2.6311 3.3251 8.3353 8.2401 3.4604 2.9817 4.7055 3.961 6.6463 5.2274 5.9877 3.907 12.034 5.4618 18.179 4.6752 2.7317-0.34966 5.0465-0.94079 11.158-2.8494 5.4368-1.6979 8.6063-2.9984 14.563-5.9753 5.2889-2.6433 6.972-3.577 11.639-6.4565 4.9753-3.0696 6.3706-3.8768 10.755-6.2221 3.4695-1.8559 4.629-2.5282 6.4347-3.7309 2.5505-1.6988 3.9002-2.8018 8.1633-6.6711 3.9869-3.6187 5.5925-4.9619 8.0038-6.6962 5.1764-3.7231 10.864-6.2289 15.752-6.9401 1.8014-0.26211 3.2061-0.32638 6.096-0.27893 5.6199 0.09228 10.179 0.78794 19.841 3.0273 10.973 2.5432 24.494 6.0501 29.096 7.5462 2.8822 0.93703 6.041 2.3331 8.2973 3.667 2.1303 1.2595 5.0361 3.3341 7.5223 5.3708 0.71463 0.5854 1.3719 1.102 1.4605 1.1479 0.15288 0.07928 0.16117 0.21112 0.16117 2.5612 0 1.5563-0.0308 2.4776-0.0827 2.4776-0.0455 0-0.80188-0.71644-1.6808-1.5921-4.707-4.6892-8.7877-7.6572-13.476-9.8018-5.0056-2.2895-14.359-5.4825-22.648-7.7317-5.0682-1.3752-11.992-2.9737-15.96-3.6844-9.222-1.6521-16.095-1.5364-21.595 0.36356-3.2845 1.1346-6.8431 3.0763-10.025 5.4699-2.5826 1.9429-4.1566 3.3851-9.0623 8.3026-4.5759 4.587-5.9071 5.7549-8.2454 7.2341-1.8788 1.1885-3.2741 1.8778-7.9682 3.9362-3.951 1.7326-6.9154 3.2668-11.98 6.2005-2.5775 1.4929-3.9787 2.2644-7.1543 3.939-8.1192 4.2815-12.499 6.1147-18.33 7.6726-7.0018 1.8706-9.5617 2.3051-13.462 2.2853-1.1176-0.0057-2.3558-0.04329-2.7517-0.08356zm-76.753-6.3879c5.8052-0.649 12.663-3.4411 20.351-8.2857 4.1339-2.605 7.0737-4.9239 8.4728-6.6834 1.5626-1.9651 1.6732-3.6605 0.3679-5.6406-0.63834-0.96836-2.6884-3.0105-5.9051-5.8823-1.397-1.2472-3.3982-3.1295-4.4472-4.1828-2.5363-2.5469-3.8118-4.0363-6.8968-8.0535-3.6175-4.7106-5.4453-6.6097-7.9904-8.3018-2.4442-1.6251-5.1069-2.6014-8.3516-3.0623-1.1491-0.16322-4.4157-0.13457-5.6727 0.04975-5.183 0.76-9.4158 2.788-12.589 6.0313-1.4706 1.5033-2.3831 2.7917-3.2922 4.6481-1.3458 2.7482-1.9623 5.525-1.9645 8.8477-0.0015 2.3907 0.2427 4.2333 0.9221 6.9567 1.3887 5.567 4.0888 11.278 7.2787 15.395 1.0415 1.3443 3.0608 3.3494 4.3271 4.2967 4.3527 3.2561 9.4337 4.5329 15.39 3.867zm-3.553-1.4467c-1.8984-0.15623-3.1898-0.40606-4.7837-0.92552-5.22-1.7012-9.4787-5.8792-12.567-12.329-2.2246-4.6461-3.4348-9.4779-3.4351-13.715-1.7e-4 -3.0133 0.52664-5.4149 1.7329-7.8995 2.4145-4.9733 7.0265-8.3713 12.708-9.3627 1.295-0.22597 3.7784-0.27117 4.9056-0.08929 3.3917 0.54728 5.8984 1.8779 8.794 4.6683 1.2081 1.1642 2.2458 2.3376 5.0169 5.6727 2.773 3.3373 4.0679 4.8152 6.9739 7.9593 3.4268 3.7075 4.6159 5.1427 5.6068 6.7672 1.9006 3.1159 1.6306 5.6772-0.9214 8.7423-2.4592 2.9536-7.6584 6.4252-12.559 8.3857-4.0544 1.6221-8.2166 2.3931-11.472 2.1252zm3.6105-1.8933c4.2649-0.42282 8.6159-2.1332 12.186-4.7905 3.6726-2.7332 5.4538-5.6963 5.0972-8.4793-0.33481-2.6128-1.9306-5.2299-5.8203-9.5456-2.5372-2.8151-7.7565-8.3341-9.3323-9.8683-3.1879-3.1037-5.436-4.5155-8.0339-5.0454-0.92669-0.18899-2.8892-0.18822-3.8884 0.0015-2.7208 0.51666-5.0542 1.7491-6.985 3.6891-1.1416 1.1471-1.8323 2.093-2.5261 3.4597-1.1696 2.3038-1.6178 4.3218-1.6209 7.2981-0.00309 2.9328 0.44981 5.4674 1.543 8.6355 2.1141 6.1264 5.7243 10.732 10.161 12.964 1.9436 0.97757 3.5101 1.4164 6.1162 1.7135 0.58142 0.06628 2.2858 0.04837 3.1025-0.0326zm-3.0179-2.1679c-3.1731-0.47445-5.8026-1.7379-8.0569-3.8714-4.5459-4.3022-7.1924-12.213-6.078-18.168 0.85575-4.5727 4.0262-7.8504 8.0249-8.2963 3.3686-0.37562 6.4934 1.3533 12.545 6.9407 3.5197 3.2499 6.2703 6.3395 7.685 8.6322 1.6875 2.7347 2.0674 5.4078 1.0788 7.5893-1.4126 3.1168-5.5974 5.9495-10.245 6.9351-0.92023 0.19513-1.2959 0.22784-2.8787 0.2506-1.0012 0.0144-1.9346 0.0091-2.0743-0.0118zm3.6407-2.9507c1.1365-0.18622 1.9351-0.43091 2.8897-0.88537 1.1473-0.54623 1.8096-1.0045 2.5713-1.7794 0.6961-0.7081 1.0901-1.3111 1.4271-2.1846 0.20229-0.52416 0.22022-0.67452 0.21949-1.8408-7.62e-4 -1.2071-0.01415-1.3086-0.27068-2.0499-0.6739-1.9474-1.9263-3.7788-4.0074-5.8596-3.2559-3.2556-7.0727-5.6836-9.7299-6.1895-0.67497-0.1285-1.9969-0.10716-2.5618 0.041365-2.1822 0.57375-3.6968 2.5294-4.1753 5.391-0.1855 1.1094-0.12564 3.1879 0.12755 4.4284 1.2013 5.8858 5.2813 10.23 10.294 10.96 0.81615 0.11885 2.3934 0.10356 3.2156-0.03116zm-3.7032-5.7115c-2.6135-0.83548-4.0125-4.5248-2.1987-5.7983 0.29882-0.2098 0.46645-0.26102 0.94229-0.2879 1.1512-0.06505 2.2157 0.41903 3.3171 1.5086 0.93714 0.92698 1.2738 1.5686 1.3247 2.525 0.03121 0.58555 0.0107 0.69724-0.20482 1.1157-0.25555 0.4962-0.68045 0.84703-1.2226 1.0095-0.45987 0.13778-1.4102 0.10256-1.958-0.07258zm47.518-12.418c0.72178-0.06834 2.2839-0.25438 3.4713-0.41342 6.2096-0.83168 10.122-1.2358 14.774-1.5264 5.219-0.32589 8.9059-1.0821 12.869-2.6394 3.2723-1.2858 5.7935-2.851 7.9509-4.9359 2.6597-2.5704 4.7216-6.0356 5.2573-8.8353 0.18272-0.95498 0.16507-2.3341-0.0401-3.1364-0.79882-3.1233-4.0989-5.1735-9.3014-5.7785-1.4201-0.16513-5.1796-0.11488-6.703 0.0896-3.6927 0.49565-6.5757 1.2725-10.888 2.9341-5.7349 2.2095-9.0636 3.1775-12.691 3.6905-1.6349 0.23123-5.2316 0.21372-6.8167-0.03318-5.004-0.77946-8.8292-2.4952-13.165-5.9047-4.7922-3.7688-7.0743-5.2974-10.499-7.0324-5.2855-2.6779-10.775-4.3092-15.82-4.701-1.6211-0.12592-4.5842-0.061011-5.9819 0.13103-3.0279 0.41606-5.5313 1.1585-8.001 2.3727-1.7552 0.86298-2.9457 1.6706-3.9881 2.7054-1.5467 1.5354-1.6943 2.4375-0.49141 3.003 0.59143 0.27801 1.6984 0.42419 4.2255 0.55801 5.0648 0.2682 7.4211 0.55548 10.16 1.2387 5.245 1.3084 9.5197 3.8473 13.229 7.8572 1.283 1.3869 2.1882 2.4797 4.1757 5.0409 2.2877 2.9482 3.1318 3.946 4.6467 5.4925 3.1381 3.2037 5.7516 5.0956 9.91 7.1733 5.1005 2.5485 8.2854 3.1637 13.716 2.6495zm19.812-8.4717c-0.88844-0.0541-4.6738-0.52077-6.0838-0.75004-3.1077-0.50531-5.236-1.2859-5.641-2.069-0.63978-1.2372 0.8205-2.4442 7.5475-6.2386 4.7269-2.6662 6.3733-3.3786 9.0456-3.9143 5.1287-1.028 9.1601 0.35561 9.784 3.3579 0.22314 1.0736-0.12704 2.5557-0.89847 3.8027-0.53046 0.85743-1.9553 2.28-2.9799 2.9751-2.0222 1.3719-4.8827 2.4112-7.472 2.7148-0.89099 0.10446-2.5679 0.16614-3.302 0.12144zm12.742 36.289c-6.6572-0.46219-13.102-4.3589-17.174-10.383-2.6945-3.9871-2.1019-6.5707 1.9406-8.4597 1.5838-0.74011 3.6602-1.3365 8.0787-2.3204 6.827-1.5202 10.489-2.6576 14.012-4.3518 3.1344-1.5073 5.6336-3.2384 8.0686-5.5889 0.5823-0.56208 2.5716-2.6984 4.4207-4.7473 4.464-4.9465 5.6343-6.0747 7.7036-7.4266 2.3851-1.5582 4.8473-2.3436 7.8937-2.5179 0.76357-0.04369 1.5954-0.06318 1.8485-0.0433 0.25308 0.01988 1.6603 0.0787 3.1272 0.1307 3.8995 0.13825 5.724-0.04778 7.5777-0.77264 2.4933-0.975 4.4157-3.0506 4.9185-5.3105 0.18852-0.84743 0.12949-2.0695-0.13324-2.7575-0.4497-1.1777-1.3252-2.0716-2.6686-2.7249-2.0694-1.0063-4.6748-1.2162-9.9483-0.80145-3.0523 0.24008-6.0124 0.26087-7.5353 0.05292-1.4514-0.19818-2.184-0.37781-5.1223-1.2559-4.1334-1.2352-6.0198-1.6921-9.1596-2.2187-7.926-1.3292-15.307-1.2471-23.014 0.25605-3.4267 0.66835-6.3191 1.4575-11.134 3.0376-3.3271 1.092-4.4611 1.4344-6.1385 1.8538-6.2673 1.5669-11.069 1.5071-16.214-0.20204-2.912-0.96739-4.998-2.0589-9.144-4.7846-3.4154-2.2453-5.5136-3.4773-8.255-4.8469-6.2128-3.104-11.866-4.8744-17.78-5.5684-1.5974-0.18744-5.788-0.26124-7.493-0.13195-3.9489 0.29943-7.3578 0.99313-11.261 2.2915-2.4386 0.81125-4.1545 1.5186-6.477 2.6699-6.5799 3.262-13.144 8.2546-19.94 15.166-3.0263 3.0777-5.2812 5.5596-9.5661 10.529-4.281 4.9649-6.9283 7.874-7.1653 7.874-0.09646 0-0.11652-0.46271-0.11652-2.6886v-2.6886l1.8475-1.8622c1.0161-1.0242 2.8897-2.9862 4.1636-4.3599 5.1223-5.524 8.37-8.8182 11.519-11.684 11.396-10.372 22.643-15.875 35.048-17.148 1.8393-0.18874 5.4685-0.25386 7.2813-0.13063 7.1175 0.48381 13.799 2.4415 21.421 6.2758 2.2165 1.1151 4.2934 2.2993 7.366 4.1995 2.8994 1.7932 3.2338 1.9867 4.699 2.7183 2.7899 1.3932 5.5264 2.2669 8.4667 2.7032 1.4432 0.21411 5.4738 0.21304 6.985-0.0019 3.0997-0.44078 5.722-1.1148 10.938-2.8114 7.8968-2.5685 14.536-3.9146 21.913-4.4423 2.1158-0.15138 6.8369-0.19563 9.906-0.09283 3.2943 0.11034 5.8509 0.25704 9.7367 0.55871 6.7928 0.52735 8.4112 0.51827 15.155-0.08501 5.8634-0.5245 8.8767-0.56638 11.78-0.16372 4.897 0.67923 8.6323 2.5193 10.696 5.2688 1.0285 1.3704 1.5012 2.5746 2.4498 6.2413 0.61115 2.3621 0.92868 3.3306 1.4089 4.297 0.8702 1.7513 2.1758 2.7445 4.1034 3.1216 0.81359 0.15916 3.1187 0.13802 4.445-0.04076 0.58209-0.07847 2.2585-0.35083 3.7253-0.60525 7.9134-1.3726 10.01-1.507 15.155-0.97154 5.4208 0.56413 10.648 1.5519 21.717 4.1037 11.352 2.6171 14.359 3.1889 22.945 4.3638 7.9859 1.0927 11.87 1.9935 15.875 3.6817 1.4561 0.61376 4.6123 2.2077 6.9003 3.4847 0.9779 0.54581 1.9006 1.0517 2.0504 1.1241l0.27241 0.1317 3e-3 2.0955c2e-3 1.1525-0.0305 2.0955-0.0712 2.0955s-1.0083-0.6232-2.1503-1.3849c-4.855-3.2382-7.9384-4.8578-11.692-6.1419-2.9868-1.0216-4.7287-1.4482-11.441-2.8016-7.4278-1.4977-11.595-2.4084-20.137-4.4003-10.353-2.4143-14.679-3.2048-20.418-3.731-1.6353-0.14995-5.5593-0.20023-6.9427-0.08896-6.1978 0.49851-13.386 3.3212-21.209 8.328-2.4337 1.5577-5.2505 3.6092-9.5815 6.9784-5.6318 4.3812-17.446 13.073-20.945 15.41-2.6748 1.7863-4.7425 2.9383-8.3356 4.644-5.1537 2.4466-8.0855 3.646-13.547 5.5418-1.0478 0.36372-3.0861 1.0789-4.5297 1.5893-4.657 1.6466-6.2641 2.1256-8.2981 2.4733-0.88203 0.15079-3.164 0.35206-3.6823 0.32478-0.11642-0.0061-0.63077-0.04024-1.143-0.0758zm3.1237-4.3953c1.714-0.36876 2.6862-0.73155 5.9986-2.2382 4.8404-2.2017 6.0683-2.6496 13.23-4.825 9.1919-2.7923 12.733-4.5854 16.846-8.5302 3.6008-3.4534 5.4059-6.7712 5.0318-9.2487-0.34646-2.2946-2.4239-3.92-6.8074-5.3261-2.0101-0.64481-3.6742-0.91452-5.6426-0.91452-3.8068 0-6.7356 1.4021-9.9374 4.7574-0.37329 0.39119-1.341 1.4733-2.1505 2.4046-1.773 2.0399-4.1368 4.422-5.3114 5.3524-3.5441 2.8076-6.8331 4.1623-14.55 5.993-3.9555 0.9384-5.2069 1.3152-6.604 1.9886-3.0479 1.469-3.8499 3.6323-2.316 6.2475 0.38638 0.65878 1.7443 2.0053 2.57 2.5484 1.3826 0.90942 3.0373 1.5592 4.7792 1.8767 1.2227 0.22284 3.6264 0.18045 4.8638-0.08578zm159.92-31.122c-1.3866-0.65668-5.1096-2.2979-6.2007-2.7335-4.8777-1.9473-8.582-2.6612-17.865-3.443-10.521-0.88609-13.703-1.4545-30.099-5.3766-8.1093-1.9399-15.46-3.6118-18.83-4.2825-0.81006-0.16126-2.6579-0.46256-4.1063-0.66958-2.6403-0.37736-3.6984-0.5669-4.9536-0.88738-2.3005-0.58738-4.0763-1.5491-5.5261-2.9927-0.78659-0.78325-1.387-1.5369-2.7276-3.4236-0.63723-0.89683-1.44-1.966-1.784-2.376-3.1344-3.7358-8.5034-6.3186-15.074-7.2514-1.8955-0.26909-2.5216-0.30951-5.5229-0.3565-3.3494-0.052441-4.6186 0.00153-9.3361 0.39702-6.5798 0.55161-7.6804 0.59142-16.383 0.59255-11.062 0.0014-15.705 0.17971-21.124 0.81101-6.5463 0.76259-12.664 2.1388-20.235 4.5523-4.1843 1.3338-5.9153 1.8178-8.051 2.2511-4.8481 0.98375-9.0357 0.83524-13.363-0.47391-2.4672-0.74643-4.7227-1.8293-8.5694-4.1141-5.163-3.0667-8.8554-4.9214-13.197-6.6287-9.6914-3.8113-18.883-4.7584-28.702-2.9576-9.7496 1.7881-19.164 6.3445-28.406 13.747-3.8546 3.0878-6.4459 5.454-13.176 12.031-3.914 3.8252-5.4242 5.2493-5.5666 5.2493-0.06907 0-0.09588-0.65104-0.09588-2.3283 0-1.899 0.02109-2.3283 0.11438-2.3283 0.15675 0 2.0385-1.6029 5.8546-4.9871 7.4969-6.6484 11.038-9.4902 15.812-12.69 12.81-8.5874 26.318-12.316 39.781-10.98 6.9321 0.68789 13.941 2.8632 21.843 6.7794 2.3866 1.1827 3.3071 1.6766 6.4263 3.448 4.2526 2.415 6.4362 3.3615 9.4022 4.0753 1.6672 0.40126 2.9752 0.56317 4.9575 0.61367 4.125 0.10509 6.9062-0.41958 14.004-2.6418 9.499-2.9741 15.94-4.39 24.045-5.2861 4.0047-0.44271 9.9816-0.81835 16.214-1.019 1.4901-0.047981 3.9095-0.12588 5.3763-0.17311 3.2912-0.10596 5.7188-0.24937 11.43-0.67521 7.2097-0.53756 7.3897-0.54631 11.218-0.54483 3.8145 0.00147 5.2694 0.08644 8.001 0.46728 6.391 0.89104 11.983 3.0169 16.129 6.1318 1.184 0.88948 1.5876 1.2437 3.5564 3.1208 3.566 3.3998 4.9485 4.4107 8.2969 6.0669 6.0457 2.9903 14.818 5.9335 26.087 8.7524 6.6963 1.6751 11.934 2.6783 16.585 3.1769 3.1628 0.33901 5.3479 0.46421 10.456 0.59917 7.6486 0.20207 10.875 0.5361 14.69 1.5209 1.6528 0.42665 2.3207 0.64124 6.2252 1.9999 1.794 0.62428 3.3085 1.1351 3.3655 1.1351 0.0791 0 0.10358 0.53115 0.10358 2.2437 0 2.083-0.0106 2.2432-0.14816 2.2367-0.0815-0.0038-0.50112-0.17412-0.93251-0.37842zm0.57267-8.9904c-0.11641-0.02168-1.7928-0.43229-3.7253-0.91247-4.8363-1.2017-6.2924-1.4774-9.2287-1.7473-1.6856-0.15496-6.6361-0.13346-10.753 0.0467-5.36 0.23458-9.6197 0.15436-13.377-0.25192-9.2742-1.0027-21.488-4.3953-29.464-8.184-3.2107-1.5251-6.7411-3.636-9.3557-5.5937-1.3657-1.0226-2.4077-1.8852-4.2763-3.5397-2.74-2.4261-3.7941-3.2565-5.5451-4.3682-4.8195-3.0599-10.526-4.9812-17.417-5.8642-2.4082-0.30858-4.3839-0.43527-7.5593-0.48471-4.3232-0.067319-6.9771 0.055461-15.917 0.73639-5.6503 0.43036-6.1645 0.46419-10.922 0.71871-12.396 0.66316-18.536 1.233-25.104 2.3296-6.0272 1.0064-11.078 2.2638-19.219 4.7846-3.5655 1.104-5.5432 1.65-7.1795 1.9821-2.4535 0.49801-3.0602 0.55575-5.8168 0.55357-2.2441-0.0018-2.6682-0.02417-3.6407-0.19224-3.7202-0.64296-5.78-1.4419-10.837-4.2037-13.913-7.5976-23.815-10.477-35.306-10.265-4.8584 0.089338-8.8473 0.62198-13.547 1.8089-7.6103 1.9221-14.909 5.282-22.564 10.387-3.8349 2.5575-6.0151 4.1897-12.742 9.5398-3.7718 2.9997-5.7162 4.4852-5.8705 4.4852-0.07214 0-0.0985-0.54134-0.0985-2.0229 0-1.7821 0.01624-2.0292 0.13641-2.0753 0.24175-0.09277 3.1426-2.0658 5.5363-3.7655 4.9626-3.5239 5.6081-3.9758 7.5777-5.3052 3.2674-2.2055 5.8548-3.8045 8.9323-5.5203 13.669-7.6211 27.817-10.508 41.783-8.525 6.4977 0.9224 12.859 2.9678 20.786 6.683 1.8294 0.85746 2.8671 1.3774 6.181 3.0972 1.5136 0.7855 3.2286 1.6337 3.8112 1.885 4.4129 1.9031 8.7819 2.4698 13.48 1.7486 2.3418-0.35948 4.2529-0.85863 9.6748-2.5269 9.5522-2.9391 15.504-4.3194 23.58-5.4687 5.1021-0.72605 10.669-1.2448 21.421-1.9959 2.6776-0.18706 6.7352-0.49054 9.017-0.67441 9.0465-0.72898 10.635-0.8068 16.425-0.80465 5.0398 0.001872 6.3575 0.061504 9.4827 0.42915 3.8178 0.44912 7.3594 1.2103 10.583 2.2745 2.1763 0.71842 3.3328 1.1861 5.334 2.1569 3.4303 1.6641 5.655 3.1945 8.9323 6.1448 2.1585 1.9431 3.2513 2.8906 4.4027 3.8173 4.3355 3.4895 8.6053 6.0879 13.166 8.0118 9.2648 3.9086 19.445 5.8964 28.175 5.5012 2.7721-0.1255 4.1534-0.25473 8.3168-0.77815 1.8161-0.22832 3.8354-0.47246 4.4873-0.54254 4.2734-0.45939 7.991-0.38166 12.023 0.25137 2.1426 0.33642 4.6539 0.68831 5.7362 0.80375l0.99483 0.10612v2.696c0 2.9723 0.0455 2.7366-0.508 2.6336zm-38.862-7.8118c-5.4924-0.3763-11.029-1.6498-16.256-3.7391-1.7707-0.70778-4.9809-2.2732-6.3923-3.1172-3.2915-1.9682-6.6887-4.5684-10.573-8.0923-0.972-0.88192-2.1722-1.9611-2.667-2.3981-6.9433-6.132-16.186-9.6126-28.008-10.547-6.1668-0.4874-13.212-0.3147-24.072 0.59013-1.3737 0.11445-4.9361 0.40011-7.9163 0.6348-13.206 1.0399-19.118 1.6628-25.358 2.6713-7.1331 1.153-12.909 2.5593-22.056 5.3699-7.714 2.3705-10.43 2.9048-14.055 2.7656-3.7781-0.14515-6.5721-0.94914-11.007-3.1673-10.129-5.0664-16.806-7.6857-23.369-9.1676-1.7875-0.40361-4.4234-0.85929-6.0953-1.0537-2.8008-0.32569-2.7152-0.33857 2.413-0.36309 3.127-0.014951 4.8423 0.00701 4.953 0.063408 0.09313 0.047454 0.95038 0.29832 1.905 0.55747 5.3418 1.4502 10.704 3.5612 19.558 7.6993 4.1811 1.9542 5.6773 2.5145 7.9051 2.9602 1.4576 0.29164 2.4591 0.3843 4.1354 0.38262 3.5275-0.00354 5.5016-0.42226 13.571-2.8786 8.0606-2.4536 11.844-3.4455 17.262-4.5259 7.8355-1.5624 15.919-2.5385 31.93-3.8555 1.723-0.14173 3.3613-0.29598 3.6407-0.34278 0.33202-0.055617 6.4179-0.076803 17.568-0.061157l17.06 0.023938 1.4817 0.32114c7.9718 1.7279 13.815 4.2552 19.262 8.331 1.3947 1.0437 1.9615 1.5265 4.4027 3.7504 4.24 3.8627 6.5363 5.7346 9.3133 7.592 6.6724 4.4629 15.049 6.91 22.902 6.6902 4.3026-0.1204 7.4716-0.76734 12.996-2.6532 5.0699-1.7306 6.6105-2.1937 8.8414-2.658 2.9574-0.61549 4.9025-0.73122 11.584-0.68924l4.5085 0.02832v5.8551l-1.7568-0.06013c-0.96626-0.03307-2.5379-0.11477-3.4925-0.18154-3.7601-0.26303-4.9186-0.30939-6.4308-0.25735-3.4191 0.11765-5.7324 0.4766-11.434 1.7742-5.966 1.3578-8.6186 1.7272-12.827 1.7866-1.3039 0.01839-2.8469 8.46e-4 -3.429-0.03907zm-2.4553-6.1499c-6.3438-0.30419-12.231-2.4018-17.695-6.3051-2.1877-1.5626-3.9773-3.043-7.1886-5.9462-2.2679-2.0504-3.3856-2.9979-4.7071-3.9905-3.5616-2.6753-7.3286-4.7781-11.515-6.4274-0.79163-0.31191-1.5536-0.62019-1.6933-0.68507-0.22192-0.10306 0.20086-0.11865 3.347-0.12338l3.601-0.00541 1.479 0.77105c4.7238 2.4627 8.1761 4.8572 12.74 8.8363 6.129 5.344 9.9634 7.7339 14.544 9.0653 4.6328 1.3464 9.1444 1.25 13.613-0.29073 1.9798-0.68269 3.7751-1.5364 7.3183-3.48 5.2388-2.8736 8.1281-3.9895 11.826-4.567 2.0704-0.32338 2.8486-0.35634 9.5316-0.40363l6.6252-0.046887v2.6355c0 1.4495-0.01 2.6409-0.0212 2.6475-0.0117 0.0066-2.6501 0.04002-5.8632 0.07425-6.0344 0.06429-6.6586 0.09734-8.9323 0.47298-3.187 0.52652-5.6824 1.3888-10.753 3.7156-4.6802 2.1478-6.9678 2.9678-9.906 3.5508-1.8198 0.36108-4.6406 0.58417-6.35 0.5022zm-258.14-4.1156 0.0057-1.9685 2.4285-1.2008c1.3357-0.66043 3.4762-1.7802 4.7568-2.4885 6.5526-3.624 8.0893-4.4486 11.091-5.9516 7.0269-3.5182 11.793-5.3647 18.754-7.2657l1.6087-0.43932 5.4187-0.01956c3.1111-0.01123 5.3105 0.011317 5.1647 0.052946-0.1397 0.039878-0.80645 0.13381-1.4817 0.20873-6.0224 0.66826-12.394 2.2907-18.288 4.6566-2.5918 1.0404-4.0957 1.7206-6.858 3.1018-4.3251 2.1626-7.6532 4.096-14.436 8.386-4.561 2.8849-7.8986 4.8963-8.1246 4.8963-0.02514 0-0.04314-0.88582-0.04001-1.9685zm254.7-4.3026c-3.5283-0.27153-7.0723-1.6787-11.034-4.3812-1.229-0.83835-2.1506-1.527-4.318-3.227-3.273-2.5671-6.18-4.5888-9.0753-6.3112-0.89928-0.535-1.6922-1.0094-1.762-1.0541-0.0814-0.052177 12.725-0.083197 35.666-0.086388l35.793-0.00498v5.08l-7.2178 8.382e-4c-7.4024 8.586e-4 -8.7756 0.044459-10.858 0.34476-4.16 0.59978-7.0276 1.7381-12.984 5.1543-2.9688 1.7027-4.4561 2.4828-5.8013 3.0426-1.9487 0.81101-3.9254 1.2957-5.8952 1.4455-1.2408 0.09435-1.2466 0.09434-2.5124-0.0031zm-254.7-3.7948v-2.1072l0.31027-0.058207c0.59643-0.11189 3.4029-0.97133 4.8633-1.4893 1.5491-0.54944 5.3684-2.0528 9.7701-3.8457 3.0954-1.2608 5.9453-2.3623 8.001-3.0925 0.81492-0.28944 1.5179-0.56022 1.5621-0.60173 0.04448-0.041736 1.6339-0.074317 3.556-0.072894 2.1498 0.00159 3.4249 0.032204 3.3428 0.08025-0.07302 0.042721-0.98861 0.36191-2.0346 0.70932-5.3392 1.7732-9.7016 3.6145-17.983 7.5902-3.977 1.9093-5.5654 2.6512-7.1967 3.3616-1.2894 0.56153-3.9938 1.6334-4.1212 1.6334-0.03837 0-0.06977-0.94826-0.06977-2.1072zm101.39-1.7986c-1.1363-0.10877-2.5203-0.37386-3.6505-0.69917-1.2725-0.36629-2.7126-0.94275-6.8482-2.7412-6.6666-2.8992-10.488-4.4268-13.906-5.5598-0.52341-0.17349-0.97333-0.3505-0.99983-0.39338-0.02895-0.046848 1.0022-0.077948 2.5845-0.077948 2.1252 0 2.6688 0.023094 2.8202 0.11982 0.10314 0.0659 0.79858 0.34821 1.5454 0.62735 0.74685 0.27914 3.5091 1.3655 6.1383 2.4141 6.4438 2.57 8.0613 3.1669 9.4794 3.498 3.2516 0.75921 6.3639 0.64524 10.626-0.38913 1.9057-0.46244 3.4695-0.90899 8.176-2.3346 5.0552-1.5312 7.6958-2.2796 10.281-2.9137 1.1176-0.27415 2.4511-0.60671 2.9633-0.73901l0.93133-0.24054 7.2813-0.014978c4.238-0.00872 7.1929 0.015947 7.0697 0.059012-0.11642 0.040694-1.2023 0.21276-2.413 0.38236-8.9641 1.2557-15.334 2.7081-25.612 5.8392-4.6675 1.422-6.4282 1.9285-8.255 2.3744-3.1838 0.77711-5.7563 1.0243-8.2127 0.78918zm-101.39-7.0123v-2.4592l8.5725 0.00339c7.4453 0.00294 8.5435 0.019164 8.3518 0.12336-0.39848 0.21659-7.7799 2.6501-9.7276 3.207-2.7352 0.78205-4.0335 1.0709-6.9215 1.5399l-0.27517 0.044689zm100.58 2.0249c-1.5756-0.19288-3.6149-0.74534-6.985-1.8923-2.7442-0.9339-6.7373-2.3949-6.8479-2.5054-0.05867-0.058673 5.4739-0.085513 17.266-0.083763 10.325 0.00153 17.3 0.033436 17.222 0.07878-0.19794 0.11592-7.762 2.3823-9.7335 2.9165-2.1044 0.57013-4.4061 1.0877-5.8863 1.3237-1.2543 0.19998-4.0045 0.28871-5.0357 0.16248z" fill="#010101"/>
  </g>
 </g>
</svg>
